<?xml version="1.0" encoding="utf-8"?>
<!-- Generator: Adobe Illustrator 25.2.1, SVG Export Plug-In . SVG Version: 6.00 Build 0)  -->
<svg version="1.1" id="Layer_1" xmlns="http://www.w3.org/2000/svg" xmlns:xlink="http://www.w3.org/1999/xlink" x="0px" y="0px"
	 viewBox="0 0 835.04 469.71" style="enable-background:new 0 0 835.04 469.71;" xml:space="preserve">
<style type="text/css">
	.st0{fill:#4285F4;}
	.st1{fill:#EA4335;}
	.st2{fill:#FBBC05;}
	.st3{fill:#34A853;}
	.st4{fill:#706D6E;}
	.st5{fill:#F1511B;}
	.st6{fill:#80CC28;}
	.st7{fill:#00ADEF;}
	.st8{fill:#FBBC09;}
	.st9{fill:#FF9900;}
	.st10{fill:#221F1F;}
	.st11{fill:#1C2B33;}
	.st12{clip-path:url(#SVGID_2_);}
	.st13{clip-path:url(#SVGID_4_);}
	.st14{clip-path:url(#SVGID_8_);fill:url(#SVGID_9_);}
	.st15{fill:#231F20;}
	.st16{fill:#2E3191;}
</style>
<g>
	<g>
		<path class="st16" d="M323.55,261.01c6.71,2.75,15.87,4.4,22.22,4.4c4.37,0,9.02-2.08,9.02-6.89c0-4.99-7.08-7.37-11.07-8.47
			c-11.07-3.01-20.72-6.61-20.72-19.13c0-15.62,11.49-22.55,25.81-22.55c7.22,0,14.44,0.01,19.74,2.79v12.98
			c-3.49-2.12-11.39-2.16-15.95-2.16c-4.62,0-11.81,0.18-11.81,5.73c0,5.34,7.14,6.65,10.97,7.85l4.74,1.37
			c8.77,2.45,16.75,8.98,16.75,19.13c0,6.8-2.17,12.72-7.86,17.36c-5.58,4.54-12.19,5.8-19.39,5.8c-9.02,0-16.19-0.75-22.44-3.93
			V261.01L323.55,261.01z"/>
		<path class="st16" d="M323.88,230.91c0,11.88,9.1,15.3,20.08,18.29c2.9,0.79,11.72,3.21,11.72,9.31c0,5.37-4.97,7.78-9.9,7.78
			c-6.48,0-14.98-1.72-21.34-4.12c0,1.88,0,11.41,0,12.47c6.12,2.98,13.04,3.67,21.56,3.67c8.26,0,14.07-1.72,18.85-5.59
			c5.06-4.14,7.53-9.59,7.53-16.68c0-10.15-8.33-16.11-16.11-18.29l-6.24-1.79c-4.03-1.16-10.11-2.9-10.11-8.26
			c0-6.6,8.57-6.6,12.69-6.6c4,0,10.97,0.09,15.07,1.79c0-1.93,0-10.01,0-11.07c-5.1-2.48-12.06-2.57-18.86-2.57
			C333.2,209.24,323.88,217.34,323.88,230.91z"/>
		<path class="st16" d="M276.16,244.08c0,10.51,8.27,21.35,21.34,21.35c6.29,0,13.19-0.9,18.74-3.37v14.07
			c-4.21,2.76-14,3.41-20.51,3.41c-10.58,0-21.49-4.07-27.87-10.33c-6.77-6.65-10.43-15.22-10.43-24.49
			c0-9.25,2.99-18.26,9.76-24.92c6.95-6.83,17-10.96,26.96-10.96c5.92,0,16.97,1.08,21.19,3.84v13.43
			c-5.55-2.48-11.55-3.61-17.85-3.61C283.85,222.49,276.16,232.99,276.16,244.08L276.16,244.08z"/>
		<path class="st16" d="M267.82,220.42c-7.86,7.72-9.5,17.48-9.5,24.3c0,9.07,3.51,17.33,10.16,23.86
			c6.23,6.12,16.92,10.07,27.25,10.07c3.45,0,14.81-0.26,19.63-3.1c0-0.97,0-10.49,0-12.34c-6.14,2.43-13.01,3.12-17.87,3.12
			c-13.72,0-22.22-11.54-22.22-22.24c0-11.16,7.63-22.47,22.22-22.47c6.13,0,11.79,1.19,16.96,3.3c0-1.9,0-10.71,0-11.66
			c-4.11-2.42-14.2-3.53-20.3-3.53C284.5,209.72,274.64,213.72,267.82,220.42z"/>
		<path class="st16" d="M379.88,261.01c6.69,2.75,15.86,4.4,22.22,4.4c4.36,0,9.01-2.08,9.01-6.89c0-4.99-7.09-7.37-11.07-8.47
			c-11.07-3.01-20.71-6.61-20.71-19.13c0-15.62,11.48-22.55,25.81-22.55c7.21,0,14.43,0.01,19.74,2.79v12.98
			c-3.5-2.12-11.4-2.16-15.96-2.16c-4.63,0-11.81,0.18-11.81,5.73c0,5.34,7.13,6.65,10.97,7.85l4.74,1.37
			c8.75,2.45,16.75,8.98,16.75,19.13c0,6.8-2.16,12.72-7.87,17.36c-5.59,4.54-12.18,5.8-19.4,5.8c-9.02,0-16.18-0.75-22.43-3.93
			V261.01L379.88,261.01z"/>
		<path class="st16" d="M380.2,230.91c0,11.88,9.09,15.3,20.06,18.29c2.91,0.79,11.72,3.21,11.72,9.31c0,5.34-5.13,7.78-9.89,7.78
			c-6.48,0-14.99-1.72-21.34-4.12c0,1.88,0,11.41,0,12.47c6.12,2.98,13.04,3.67,21.55,3.67c8.25,0,14.07-1.72,18.85-5.59
			c5.07-4.14,7.55-9.59,7.55-16.68c0-10.15-8.32-16.1-16.11-18.29c-0.01,0-6.24-1.79-6.24-1.79c-4.03-1.16-10.11-2.89-10.11-8.26
			c0-6.6,8.57-6.6,12.68-6.6c4,0,10.96,0.09,15.08,1.79c0-1.93,0-10.01,0-11.07c-5.11-2.48-12.07-2.57-18.86-2.57
			C389.52,209.24,380.2,217.34,380.2,230.91z"/>
		<polygon class="st16" points="509.78,210.59 531.45,210.59 555.37,252.51 555.54,252.51 555.54,210.59 572.54,210.59 
			572.54,277.06 550.87,277.06 526.94,235.29 526.78,235.29 526.78,277.06 509.78,277.06 509.78,210.59 		"/>
		<path class="st16" d="M556.42,211.47c0,1.69,0,44.36,0,44.36l-1.82-2.88c0,0-23.18-40.61-23.67-41.48c-0.93,0-18.7,0-20.28,0
			c0,1.69,0,63.02,0,64.71c1.49,0,13.75,0,15.24,0c0-1.69,0-44.19,0-44.19l1.81,2.86c0,0,23.17,40.46,23.67,41.32
			c0.93,0,18.71,0,20.29,0c0-1.69,0-63.02,0-64.71C570.17,211.47,557.92,211.47,556.42,211.47z"/>
		<polygon class="st16" points="247.64,277.06 229.58,277.06 229.58,210.59 247.64,210.59 247.64,277.06 		"/>
		<path class="st16" d="M230.46,211.47c0,1.69,0,63.02,0,64.71c1.51,0,14.79,0,16.29,0c0-1.69,0-63.02,0-64.71
			C245.25,211.47,231.97,211.47,230.46,211.47z"/>
		<polygon class="st16" points="116.07,225.21 116.07,236.33 148.27,236.33 148.27,250.97 116.07,250.97 116.07,262.42 
			149.39,262.42 149.39,277.06 98.01,277.06 98.01,210.59 149.39,210.59 149.39,225.21 116.07,225.21 		"/>
		<path class="st16" d="M98.89,211.47c0,1.69,0,63.02,0,64.71c1.67,0,47.95,0,49.61,0c0-1.45,0-11.43,0-12.87c-1.66,0-33.3,0-33.3,0
			v-13.22c0,0,30.53,0,32.19,0c0-1.45,0-11.43,0-12.89c-1.66,0-32.19,0-32.19,0v-12.87c0,0,31.64,0,33.3,0c0-1.45,0-11.41,0-12.86
			C146.84,211.47,100.56,211.47,98.89,211.47z"/>
		<path class="st16" d="M210.49,250.87c0.14,0.33,10,26.2,10,26.19h-19.31c0,0-4.31-14.81-6.58-20.21
			c-1.97-3.54-4.09-5.35-6.71-5.35h-6.61v25.57h-18.05v-66.48h30.06c16.06,0,24.14,3.92,24.13,18.13c0,9.04-9.11,14.86-12.2,15.44
			C207.09,245.85,208.92,247.11,210.49,250.87L210.49,250.87z M180.97,238.51h8.32c4.57,0,9.02-0.94,9.02-7.35
			c0-6.42-4.45-7.36-9.02-7.36h-8.32V238.51L180.97,238.51z"/>
		<path class="st16" d="M164.13,211.47c0,1.69,0,63.02,0,64.71c1.51,0,14.78,0,16.29,0c0-1.64,0-25.57,0-25.57h7.48
			c2.89,0,5.27,1.85,7.47,5.81c0.04,0.08,5.46,16.71,6.46,19.76c1.11,0,15.37,0,17.44,0c-0.47-1.11-1.12-2.8-2.35-6.03l-7.24-18.94
			c-1.28-3.09-2.75-4.39-4.31-5.77l-2.06-1.84l1.77-0.32c2.67-0.48,11.48-6,11.48-14.57c0-0.01,0-0.02,0-0.02
			c0-5.57-1.3-9.58-3.96-12.23c-3.45-3.46-9.4-4.99-19.3-4.99C193.31,211.47,165.78,211.47,164.13,211.47z M180.09,238.51v-15.59
			h9.2c4.61,0,9.9,0.94,9.9,8.24c0,7.3-5.29,8.23-9.9,8.23h-9.2V238.51z"/>
		<path class="st16" d="M501.7,242.57c0,21.93-13.96,37.41-34,37.41c-20.03,0-34.26-15.48-34.26-37.41c0-20.51,16.3-34.9,34.26-34.9
			C485.67,207.67,501.7,222.07,501.7,242.57L501.7,242.57z M452.65,242.6c0,13.19,4.3,22.82,15,22.82
			c10.69,0,14.99-9.63,14.99-22.82c0-10.54-4.3-20.19-14.99-20.19C456.95,222.41,452.65,232.05,452.65,242.6L452.65,242.6z"/>
		<path class="st16" d="M434.33,242.57c0,21.51,13.72,36.53,33.37,36.53c19.5,0,33.12-15.02,33.12-36.53
			c0-19.08-14.55-34.02-33.12-34.02C451.3,208.56,434.33,221.28,434.33,242.57z M451.78,242.6c0-10.18,4.16-21.07,15.87-21.07
			c11.7,0,15.88,10.89,15.88,21.07c0,15.28-5.65,23.69-15.88,23.69C457.41,266.29,451.78,257.88,451.78,242.6z"/>
		<path class="st16" d="M728.81,194.97c6.55-2.39,9.87-9.54,7.41-15.95c-2.44-6.42-9.73-9.67-16.26-7.28l-71.06,26.05
			c-6.54,2.4-9.86,9.53-7.41,15.96c2.44,6.42,9.73,9.66,16.27,7.26L728.81,194.97L728.81,194.97z"/>
		<path class="st16" d="M720.25,172.57L720.25,172.57l-71.06,26.04c-2.97,1.09-5.31,3.25-6.61,6.08c-1.27,2.78-1.36,5.88-0.27,8.74
			c2.26,5.96,9.05,8.98,15.15,6.74l71.05-26.04c2.98-1.08,5.33-3.25,6.62-6.09c1.27-2.77,1.37-5.87,0.28-8.72
			C733.13,173.37,726.34,170.34,720.25,172.57z"/>
		<path class="st16" d="M728.81,233.44c6.55-2.4,9.87-9.54,7.41-15.93c-2.44-6.42-9.73-9.68-16.26-7.28l-71.06,26.04
			c-6.54,2.41-9.86,9.54-7.41,15.96c2.44,6.39,9.73,9.67,16.27,7.26L728.81,233.44L728.81,233.44z"/>
		<path class="st16" d="M720.25,211.04L720.25,211.04l-71.06,26.04c-2.97,1.1-5.32,3.26-6.62,6.11c-1.26,2.77-1.35,5.87-0.27,8.72
			c2.27,5.96,9.06,8.98,15.15,6.77l71.05-26.05c2.98-1.11,5.34-3.27,6.62-6.12c1.27-2.77,1.36-5.85,0.28-8.69
			C733.14,211.86,726.34,208.83,720.25,211.04z"/>
		<path class="st16" d="M728.81,271.93c6.55-2.42,9.87-9.55,7.41-15.97c-2.44-6.38-9.73-9.66-16.26-7.26l-71.06,26.05
			c-6.54,2.4-9.86,9.55-7.41,15.96c2.44,6.41,9.73,9.66,16.27,7.27L728.81,271.93L728.81,271.93z"/>
		<path class="st16" d="M720.26,249.53l-71.07,26.05c-2.97,1.08-5.31,3.24-6.61,6.08c-1.27,2.78-1.37,5.88-0.28,8.74
			c2.26,5.95,9.06,8.98,15.15,6.74l71.05-26.03c2.98-1.1,5.34-3.27,6.62-6.11c1.27-2.77,1.36-5.87,0.28-8.73
			C733.12,250.32,726.33,247.29,720.26,249.53z"/>
	</g>
</g>
</svg>
