<?xml version="1.0" encoding="utf-8"?>
<!-- Generator: Adobe Illustrator 25.2.1, SVG Export Plug-In . SVG Version: 6.00 Build 0)  -->
<svg version="1.1" id="Layer_1" xmlns="http://www.w3.org/2000/svg" xmlns:xlink="http://www.w3.org/1999/xlink" x="0px" y="0px"
	 viewBox="0 0 835.04 469.71" style="enable-background:new 0 0 835.04 469.71;" xml:space="preserve">
<style type="text/css">
	.st0{fill:#4285F4;}
	.st1{fill:#EA4335;}
	.st2{fill:#FBBC05;}
	.st3{fill:#34A853;}
	.st4{fill:#706D6E;}
	.st5{fill:#F1511B;}
	.st6{fill:#80CC28;}
	.st7{fill:#00ADEF;}
	.st8{fill:#FBBC09;}
	.st9{fill:#FF9900;}
	.st10{fill:#221F1F;}
	.st11{fill:#1C2B33;}
	.st12{clip-path:url(#SVGID_2_);}
	.st13{clip-path:url(#SVGID_4_);}
	.st14{clip-path:url(#SVGID_8_);fill:url(#SVGID_9_);}
	.st15{fill:#231F20;}
	.st16{fill:#2E3191;}
</style>
<g>
	<path class="st9" d="M478.64,300.83c-29.61,21.79-72.64,33.53-109.52,33.53c-51.83,0-98.48-19.14-133.83-51.13
		c-2.79-2.51-0.28-5.87,3.07-3.91c38.14,22.21,85.21,35.48,133.97,35.48c32.83,0,68.87-6.85,102.12-20.95
		C479.34,291.75,483.67,297.19,478.64,300.83"/>
	<path class="st9" d="M491.07,286.72c-3.77-4.89-25.01-2.24-34.64-1.12c-2.93,0.42-3.35-2.24-0.7-4.05
		c16.9-11.87,44.7-8.52,47.91-4.47s-0.84,31.85-16.76,45.12c-2.37,2.1-4.75,0.98-3.63-1.82
		C486.74,311.58,494.84,291.61,491.07,286.72"/>
	<path class="st10" d="M457.12,197.45v-11.59c0-1.82,1.4-2.93,2.93-2.93h51.83c1.68,0,2.93,1.26,2.93,2.93v9.92
		c0,1.68-1.4,3.77-3.91,7.26l-26.82,38.42c9.92-0.28,20.53,1.26,29.61,6.29c2.1,1.12,2.65,2.79,2.79,4.47v12.29
		c0,1.68-1.82,3.63-3.77,2.65c-15.92-8.38-37.16-9.22-54.76,0.14c-1.82,0.98-3.63-0.98-3.63-2.65v-11.73c0-1.96,0-5.17,1.96-7.96
		l31.15-44.7h-27.1C458.38,200.39,457.12,199.27,457.12,197.45"/>
	<path class="st10" d="M267.84,269.82h-15.79c-1.54-0.14-2.65-1.26-2.79-2.65v-81.02c0-1.68,1.4-2.93,3.07-2.93H267
		c1.54,0,2.79,1.26,2.79,2.65v10.62h0.28c3.77-10.2,11.04-14.95,20.81-14.95c9.92,0,16.06,4.75,20.53,14.95
		c3.77-10.2,12.43-14.95,21.79-14.95c6.57,0,13.83,2.79,18.3,8.8c5.03,6.84,3.91,16.76,3.91,25.42v51.13c0,1.68-1.4,2.93-3.07,2.93
		h-15.79c-1.54-0.14-2.79-1.4-2.79-2.93V224c0-3.35,0.28-11.87-0.42-15.23c-1.12-5.45-4.75-6.98-9.22-6.98
		c-3.77,0-7.82,2.51-9.5,6.71c-1.68,4.05-1.4,10.9-1.4,15.51v42.89c0,1.68-1.4,2.93-3.07,2.93h-15.79c-1.54-0.14-2.79-1.4-2.79-2.93
		V224c0-9.08,1.54-22.35-9.78-22.35c-11.32,0-10.9,12.99-10.9,22.35v42.89C270.91,268.42,269.52,269.82,267.84,269.82"/>
	<path class="st10" d="M559.52,181.53c23.47,0,36.04,20.12,36.04,45.68c0,24.73-13.97,44.28-36.04,44.28
		c-23.05,0-35.48-20.12-35.48-45.12C524.04,201.09,536.75,181.53,559.52,181.53 M559.66,198.01c-11.59,0-12.29,15.79-12.29,25.7
		c0,9.92-0.14,31.01,12.29,31.01c12.29,0,12.85-17.04,12.85-27.38c0-6.84-0.28-14.95-2.37-21.51
		C568.18,200.25,564.69,198.01,559.66,198.01"/>
	<path class="st10" d="M626.01,269.82h-15.65c-1.54-0.14-2.79-1.4-2.79-2.93v-81.02c0.14-1.54,1.4-2.65,3.07-2.65h14.67
		c1.4,0,2.51,0.98,2.79,2.24v12.43h0.28c4.47-11.04,10.62-16.34,21.51-16.34c7.12,0,13.97,2.51,18.44,9.5
		c4.19,6.43,4.19,17.32,4.19,25.14v50.99c-0.14,1.4-1.54,2.51-3.07,2.51h-16.06c-1.4-0.14-2.65-1.12-2.79-2.51v-44
		c0-8.8,0.98-21.79-9.92-21.79c-3.77,0-7.4,2.51-9.08,6.43c-2.24,4.89-2.51,9.92-2.51,15.37v43.58
		C629.09,268.42,627.69,269.82,626.01,269.82"/>
	<path class="st10" d="M443.85,254.87c-2.93-4.05-6.01-7.26-6.01-14.67v-24.59c0-10.48,0.7-19.98-6.98-27.1
		c-6.01-5.87-16.06-7.82-23.75-7.82c-14.95,0-31.85,5.59-35.34,24.17c-0.42,1.96,1.12,3.07,2.37,3.35l15.23,1.68
		c1.4,0,2.51-1.4,2.79-2.93c1.26-6.43,6.71-9.5,12.71-9.5c3.21,0,6.98,1.26,8.8,4.05c2.24,3.21,1.96,7.68,1.96,11.45v2.1
		c-9.08,0.98-21.09,1.68-29.61,5.45c-9.92,4.33-16.76,12.99-16.76,25.84c0,16.34,10.34,24.59,23.61,24.59
		c11.18,0,17.32-2.65,25.98-11.45c2.79,4.19,3.77,6.15,9.08,10.48c1.12,0.56,2.65,0.56,3.77-0.42l0,0
		c3.21-2.79,8.94-7.82,12.15-10.48C445.11,258.08,444.83,256.26,443.85,254.87z M412.84,247.74c-2.51,4.47-6.57,7.12-10.9,7.12
		c-6.01,0-9.64-4.61-9.64-11.45c0-13.41,12.01-15.92,23.47-15.92v3.35l0,0C415.78,237.27,415.91,242.3,412.84,247.74z"/>
	<path class="st10" d="M236.97,254.87c-2.93-4.05-6.01-7.26-6.01-14.67v-24.59c0-10.48,0.7-19.98-6.98-27.1
		c-6.01-5.87-16.06-7.82-23.75-7.82c-14.95,0-31.71,5.59-35.34,24.17c-0.42,1.96,1.12,3.07,2.37,3.35l15.37,1.68
		c1.4,0,2.51-1.4,2.79-2.93c1.26-6.43,6.71-9.5,12.71-9.5c3.21,0,6.98,1.26,8.8,4.05c2.24,3.21,1.96,7.68,1.96,11.45v2.1
		c-9.08,0.98-21.09,1.68-29.61,5.45c-9.92,4.33-16.76,12.99-16.76,25.84c0,16.34,10.34,24.59,23.61,24.59
		c11.18,0,17.32-2.65,25.98-11.45c2.93,4.19,3.77,6.15,9.08,10.48c1.12,0.56,2.65,0.56,3.77-0.42l0,0
		c3.21-2.79,8.94-7.82,12.15-10.48C238.23,258.08,237.95,256.26,236.97,254.87z M205.96,247.74c-2.51,4.47-6.43,7.12-10.9,7.12
		c-6.01,0-9.64-4.61-9.64-11.45c0-13.41,12.01-15.92,23.47-15.92v3.35C208.89,237.27,209.03,242.3,205.96,247.74z"/>
</g>
</svg>
