<?xml version="1.0" encoding="utf-8"?>
<!-- Generator: Adobe Illustrator 25.2.1, SVG Export Plug-In . SVG Version: 6.00 Build 0)  -->
<svg version="1.1" id="Layer_1" xmlns="http://www.w3.org/2000/svg" xmlns:xlink="http://www.w3.org/1999/xlink" x="0px" y="0px"
	 viewBox="0 0 835.04 469.71" style="enable-background:new 0 0 835.04 469.71;" xml:space="preserve">
<style type="text/css">
	.st0{fill:#4285F4;}
	.st1{fill:#EA4335;}
	.st2{fill:#FBBC05;}
	.st3{fill:#34A853;}
	.st4{fill:#706D6E;}
	.st5{fill:#F1511B;}
	.st6{fill:#80CC28;}
	.st7{fill:#00ADEF;}
	.st8{fill:#FBBC09;}
	.st9{fill:#FF9900;}
	.st10{fill:#221F1F;}
	.st11{fill:#1C2B33;}
	.st12{clip-path:url(#SVGID_2_);}
	.st13{clip-path:url(#SVGID_4_);}
	.st14{clip-path:url(#SVGID_8_);fill:url(#SVGID_9_);}
	.st15{fill:#231F20;}
	.st16{fill:#2E3191;}
</style>
<g id="XMLID_48_">
	<path id="path2998_1_" class="st0" d="M293.11,211.29h-57.12v16.95h40.51c-2,23.77-21.78,33.91-40.44,33.91
		c-23.88,0-44.72-18.79-44.72-45.13c0-25.66,19.87-45.42,44.78-45.42c19.22,0,30.54,12.25,30.54,12.25l11.87-12.29
		c0,0-15.23-16.96-43.02-16.96c-35.38,0-62.75,29.86-62.75,62.11c0,31.6,25.75,62.42,63.65,62.42c33.34,0,57.74-22.84,57.74-56.61
		C294.14,215.4,293.1,211.28,293.11,211.29L293.11,211.29z"/>
	<path id="path3000_1_" class="st1" d="M339.9,199.01c-23.44,0-40.24,18.32-40.24,39.7c0,21.69,16.29,40.35,40.51,40.35
		c21.93,0,39.89-16.76,39.89-39.89C380.06,212.66,359.17,199.01,339.9,199.01L339.9,199.01z M340.13,214.73
		c11.53,0,22.45,9.32,22.45,24.34c0,14.7-10.88,24.28-22.5,24.28c-12.77,0-22.85-10.23-22.85-24.4
		C317.23,225.09,327.18,214.73,340.13,214.73L340.13,214.73z"/>
	<path id="path3005_1_" class="st2" d="M427.41,199.01c-23.44,0-40.24,18.32-40.24,39.7c0,21.69,16.29,40.35,40.51,40.35
		c21.93,0,39.89-16.76,39.89-39.89C467.57,212.66,446.68,199.01,427.41,199.01L427.41,199.01z M427.64,214.73
		c11.53,0,22.45,9.32,22.45,24.34c0,14.7-10.88,24.28-22.5,24.28c-12.77,0-22.85-10.23-22.85-24.4
		C404.74,225.09,414.69,214.73,427.64,214.73L427.64,214.73z"/>
	<path id="path3007_1_" class="st0" d="M513.25,199.05c-21.51,0-38.43,18.84-38.43,39.99c0,24.09,19.61,40.07,38.05,40.07
		c11.41,0,17.47-4.53,21.95-9.73v7.89c0,13.81-8.38,22.08-21.04,22.08c-12.23,0-18.36-9.09-20.49-14.25l-15.38,6.43
		c5.46,11.54,16.44,23.57,36,23.57c21.39,0,37.69-13.47,37.69-41.73v-71.92h-16.78v6.78C529.67,202.68,522.61,199.05,513.25,199.05
		L513.25,199.05z M514.8,214.74c10.55,0,21.38,9.01,21.38,24.39c0,15.63-10.81,24.25-21.61,24.25c-11.47,0-22.14-9.31-22.14-24.1
		C492.43,223.91,503.51,214.74,514.8,214.74L514.8,214.74z"/>
	<path id="path3011_1_" class="st1" d="M626.22,198.96c-20.29,0-37.33,16.15-37.33,39.97c0,25.21,18.99,40.16,39.28,40.16
		c16.93,0,27.33-9.26,33.53-17.57l-13.84-9.21c-3.59,5.57-9.59,11.02-19.61,11.02c-11.25,0-16.43-6.16-19.63-12.13l53.67-22.27
		l-2.79-6.53C654.32,209.63,642.23,198.96,626.22,198.96L626.22,198.96z M626.92,214.35c7.31,0,12.58,3.89,14.81,8.55l-35.84,14.98
		C604.35,226.28,615.34,214.35,626.92,214.35L626.92,214.35z"/>
	<path id="path3015_1_" class="st3" d="M563.3,276.72h17.63V158.74H563.3V276.72z"/>
</g>
</svg>
