<?xml version="1.0" encoding="utf-8"?>
<!-- Generator: Adobe Illustrator 25.2.1, SVG Export Plug-In . SVG Version: 6.00 Build 0)  -->
<svg version="1.1" id="Layer_1" xmlns="http://www.w3.org/2000/svg" xmlns:xlink="http://www.w3.org/1999/xlink" x="0px" y="0px"
	 viewBox="0 0 835.04 469.71" style="enable-background:new 0 0 835.04 469.71;" xml:space="preserve">
<style type="text/css">
	.st0{fill:#4285F4;}
	.st1{fill:#EA4335;}
	.st2{fill:#FBBC05;}
	.st3{fill:#34A853;}
	.st4{fill:#706D6E;}
	.st5{fill:#F1511B;}
	.st6{fill:#80CC28;}
	.st7{fill:#00ADEF;}
	.st8{fill:#FBBC09;}
	.st9{fill:#FF9900;}
	.st10{fill:#221F1F;}
	.st11{fill:#1C2B33;}
	.st12{clip-path:url(#SVGID_2_);}
	.st13{clip-path:url(#SVGID_4_);}
	.st14{clip-path:url(#SVGID_8_);fill:url(#SVGID_9_);}
	.st15{fill:#231F20;}
	.st16{fill:#2E3191;}
</style>
<g>
	<path class="st4" d="M744.18,230.95v-11.48h-14.29V201.6l-0.51,0.13l-13.4,4.08l-0.26,0.13v13.53h-21.18v-7.53
		c0-3.57,0.77-6.25,2.3-8.04s3.7-2.68,6.51-2.68c2.04,0,4.08,0.51,6.25,1.4l0.51,0.26v-12.12l-0.26-0.13
		c-1.91-0.77-4.59-1.02-7.91-1.02c-4.21,0-7.91,0.89-11.23,2.68c-3.32,1.79-5.87,4.34-7.66,7.66c-1.79,3.32-2.68,7.02-2.68,11.23
		v8.29h-9.95v11.48h9.95v48.36h14.29v-48.36h21.18v30.75c0,12.63,6,19.14,17.74,19.14c1.91,0,3.96-0.26,6-0.64
		c2.17-0.51,3.57-0.89,4.47-1.4l0.13-0.13v-11.61l-0.64,0.38c-0.77,0.51-1.79,0.89-2.81,1.28c-1.15,0.38-2.04,0.51-2.81,0.51
		c-2.81,0-4.85-0.77-6.12-2.17c-1.28-1.53-1.91-4.08-1.91-7.66v-28.33h14.29V230.95z M638.52,269.1c-5.23,0-9.31-1.66-12.12-5.1
		c-2.93-3.45-4.34-8.29-4.34-14.42c0-6.38,1.4-11.36,4.34-14.8c2.93-3.45,6.89-5.23,11.99-5.23c4.98,0,8.93,1.66,11.74,4.98
		s4.21,8.29,4.21,14.67c0,6.51-1.4,11.48-3.96,14.8C647.71,267.44,643.76,269.1,638.52,269.1z M639.16,218.06
		c-9.83,0-17.74,2.93-23.35,8.55c-5.61,5.74-8.42,13.65-8.42,23.48c0,9.31,2.81,16.97,8.17,22.46c5.49,5.49,12.89,8.29,22.07,8.29
		c9.57,0,17.23-2.93,22.84-8.68c5.61-5.74,8.42-13.65,8.42-23.22s-2.68-17.1-7.91-22.59C655.88,220.74,648.48,218.06,639.16,218.06z
		 M584.42,218.06c-6.76,0-12.25,1.66-16.46,5.1c-4.21,3.45-6.38,7.91-6.38,13.27c0,2.81,0.51,5.36,1.4,7.4
		c0.89,2.17,2.3,3.96,4.21,5.61c1.91,1.53,4.85,3.19,8.68,4.85c3.19,1.28,5.61,2.42,7.15,3.32c1.53,0.89,2.55,1.79,3.19,2.55
		c0.64,0.89,0.89,2.04,0.89,3.45c0,4.08-3.06,6-9.19,6c-2.3,0-4.98-0.51-7.78-1.4c-2.93-0.89-5.61-2.3-8.04-4.08l-0.64-0.38v13.78
		l0.26,0.13c2.04,0.89,4.59,1.66,7.53,2.3c2.93,0.64,5.74,0.89,8.04,0.89c7.27,0,13.14-1.79,17.48-5.1
		c4.34-3.45,6.51-8.04,6.51-13.65c0-4.08-1.15-7.53-3.45-10.34c-2.3-2.81-6.25-5.36-11.87-7.53c-4.47-1.79-7.27-3.32-8.42-4.34
		c-1.15-1.15-1.66-2.68-1.66-4.59c0-1.79,0.77-3.19,2.17-4.21c1.4-1.15,3.45-1.66,6.12-1.66c2.42,0,4.85,0.38,7.27,1.15
		c2.42,0.77,4.59,1.66,6.25,2.93l0.64,0.38v-13.02l-0.26-0.13c-1.66-0.64-3.83-1.28-6.38-1.79
		C588.89,218.32,586.46,218.06,584.42,218.06z M524.32,269.1c-5.23,0-9.31-1.66-12.12-5.1c-2.93-3.45-4.34-8.29-4.34-14.42
		c0-6.38,1.4-11.36,4.34-14.8c2.93-3.45,6.89-5.23,11.99-5.23c4.98,0,8.93,1.66,11.74,4.98s4.21,8.29,4.21,14.67
		c0,6.51-1.4,11.48-4.08,14.8C533.51,267.44,529.55,269.1,524.32,269.1z M524.96,218.06c-9.83,0-17.74,2.93-23.35,8.55
		c-5.61,5.74-8.42,13.65-8.42,23.48c0,9.44,2.81,16.97,8.17,22.46c5.49,5.49,12.89,8.29,22.07,8.29c9.57,0,17.23-2.93,22.84-8.68
		c5.61-5.74,8.42-13.65,8.42-23.22s-2.68-17.1-7.91-22.59C541.68,220.74,534.28,218.06,524.96,218.06z M471.62,229.8v-10.34h-14.04
		v59.84h14.04v-30.62c0-5.23,1.15-9.44,3.57-12.76c2.3-3.19,5.36-4.85,9.06-4.85c1.28,0,2.68,0.26,4.21,0.64
		c1.53,0.38,2.68,0.89,3.32,1.28l0.64,0.38v-14.16l-0.26-0.13c-1.28-0.51-3.19-0.89-5.49-0.89c-3.57,0-6.76,1.15-9.44,3.32
		c-2.42,1.91-4.08,4.72-5.36,8.04h-0.26V229.8z M432.32,218.06c-6.51,0-12.25,1.4-17.1,4.08c-4.98,2.68-8.68,6.64-11.36,11.61
		c-2.55,4.98-3.83,10.72-3.83,17.23c0,5.61,1.28,10.85,3.83,15.44c2.55,4.59,6,8.17,10.59,10.72c4.47,2.42,9.7,3.7,15.44,3.7
		c6.64,0,12.38-1.28,16.97-3.96l0.13-0.13v-12.89l-0.64,0.38c-2.04,1.53-4.34,2.68-6.89,3.57c-2.55,0.89-4.72,1.28-6.76,1.28
		c-5.49,0-9.95-1.79-13.14-5.1c-3.19-3.45-4.85-8.17-4.85-14.29c0-6.12,1.66-10.97,5.1-14.67c3.32-3.57,7.78-5.49,13.27-5.49
		c4.59,0,9.19,1.53,13.4,4.72l0.64,0.38V221l-0.13-0.13c-1.66-0.89-3.83-1.66-6.51-2.17C437.43,218.32,434.75,218.06,432.32,218.06z
		 M390.21,219.47h-14.04v59.84h14.04V219.47z M383.32,193.95c-2.3,0-4.34,0.77-6,2.3c-1.66,1.53-2.55,3.57-2.55,5.87
		s0.89,4.21,2.55,5.74c1.66,1.53,3.7,2.3,6,2.3s4.34-0.77,6-2.3s2.55-3.45,2.55-5.74s-0.77-4.21-2.42-5.87
		C387.79,194.71,385.75,193.95,383.32,193.95z M348.23,215v64.31h14.42v-83.58h-19.91l-25.26,62.01l-24.5-62.01h-20.67v83.58h13.53
		V215h0.51l25.9,64.31h10.21L347.98,215H348.23L348.23,215z"/>
	<rect x="90.87" y="167.79" class="st5" width="66.22" height="66.22"/>
	<rect x="163.98" y="167.79" class="st6" width="66.22" height="66.22"/>
	<rect x="90.87" y="241.03" class="st7" width="66.22" height="66.22"/>
	<rect x="163.98" y="241.03" class="st8" width="66.22" height="66.22"/>
</g>
</svg>
