<?xml version="1.0" encoding="utf-8"?>
<!-- Generator: Adobe Illustrator 25.2.1, SVG Export Plug-In . SVG Version: 6.00 Build 0)  -->
<svg version="1.1" id="Layer_1" xmlns="http://www.w3.org/2000/svg" xmlns:xlink="http://www.w3.org/1999/xlink" x="0px" y="0px"
	 viewBox="0 0 835.04 469.71" style="enable-background:new 0 0 835.04 469.71;" xml:space="preserve">
<style type="text/css">
	.st0{fill:#4285F4;}
	.st1{fill:#EA4335;}
	.st2{fill:#FBBC05;}
	.st3{fill:#34A853;}
	.st4{fill:#706D6E;}
	.st5{fill:#F1511B;}
	.st6{fill:#80CC28;}
	.st7{fill:#00ADEF;}
	.st8{fill:#FBBC09;}
	.st9{fill:#FF9900;}
	.st10{fill:#221F1F;}
	.st11{fill:#1C2B33;}
	.st12{clip-path:url(#SVGID_2_);}
	.st13{clip-path:url(#SVGID_4_);}
	.st14{clip-path:url(#SVGID_8_);fill:url(#SVGID_9_);}
	.st15{fill:#231F20;}
	.st16{fill:#2E3191;}
</style>
<g id="XMLID_28_">
	<path id="XMLID_47_" class="st15" d="M509.59,240.58c-0.05,20.87-11.2,32.04-32.01,32.04c-20.44,0-31.91-11.5-31.87-31.83
		l0.12-36.98h22.94l-0.06,35.8c-0.04,9.93,2.53,14.31,8.72,14.29c6.17,0.02,9.17-3.94,9.2-15.31l0.1-34.79l22.97,0.01L509.59,240.58
		z"/>
	<polygon id="XMLID_46_" class="st15" points="180.43,220.88 180.29,271.22 157.07,271.22 157.23,220.88 137.81,220.89 
		137.87,203.78 199.88,203.8 199.84,220.9 	"/>
	<path id="XMLID_43_" class="st15" d="M238.92,219.17l-5.77,23.1l11.55,0.01L238.92,219.17z M253.71,271.22l-3.86-12.36h-21.79
		l-4.13,12.36l-23.11,0.02l23.65-67.45l29.34-0.01l23.02,67.44H253.71z"/>
	<path id="XMLID_42_" class="st15" d="M583.94,266.02l-6.92-17.5c-4.1,3.21-8.24,6.13-14.99,6.11c-9.1,0-15.16-7.82-15.12-17.37
		c0.01-9.68,5.38-17.77,14.86-17.79c5.97-0.03,11.18,3.11,15.33,6.58l6.88-17.1c-7.66-4.03-15.31-6.47-25.84-6.47
		c-19.53-0.03-34.34,13.95-34.41,34.58c-0.07,21.78,14.28,35.56,34.85,35.56C569.92,272.62,577.88,269.89,583.94,266.02"/>
	<polygon id="XMLID_41_" class="st15" points="636.07,271.24 621.63,246.68 621.55,271.27 599.01,271.24 599.21,203.81 
		621.74,203.81 621.67,228.51 635.34,203.83 660.49,203.83 639.25,237.06 663.03,271.25 	"/>
	<path id="XMLID_40_" class="st15" d="M98.94,272.6c14.62-0.02,29.76-5.46,29.8-22.69c0.07-15.56-12.58-19.81-22.42-22.06
		c-7.42-1.64-11.01-2.46-10.98-5.58c0-4.1,5.03-4.44,7.69-4.44c6.69,0.03,12.91,2.88,18.27,6.27l6.05-15.37
		c-7.86-3.53-17.37-6.32-26.28-6.32c-15.17,0-27.05,7.66-27.07,23.07c-0.06,12.64,9.08,17.51,19.21,20.13
		c6.97,1.8,11.45,2.37,11.44,5.97c-0.02,3.62-3.43,4.7-6.77,4.69c-7.39,0.01-14.38-3.33-18.7-7.25l-7.32,14.9
		C79.69,269.26,89.27,272.6,98.94,272.6"/>
	<path id="XMLID_39_" class="st15" d="M697.15,272.62c14.62,0,29.78-5.43,29.83-22.68c0.03-15.57-12.59-19.83-22.44-22.03
		c-7.44-1.67-10.99-2.47-10.97-5.58c0.03-4.14,5-4.45,7.69-4.47c6.68,0.02,12.91,2.88,18.25,6.31l6.09-15.37
		c-7.88-3.53-17.42-6.33-26.29-6.37c-15.18,0.03-27.06,7.65-27.09,23.07c-0.04,12.66,9.11,17.54,19.2,20.16
		c6.98,1.8,11.47,2.33,11.45,5.98c0,3.61-3.43,4.68-6.75,4.68c-7.37,0-14.37-3.35-18.73-7.27l-7.29,14.91
		C677.91,269.27,687.52,272.62,697.15,272.62"/>
	<path id="XMLID_36_" class="st15" d="M338.03,246.04c7.89-3,12.19-11.35,12.2-19.1c0.06-15.9-10.32-23.13-25.09-23.12l-34.8-0.03
		l-0.17,67.43h22.33l0.06-19.99h5.64l11.53,19.99h24.13L338.03,246.04z M327.63,227.03c-0.03,4.42-2.69,6.99-7.09,6.99l-7.94-0.02
		l0.04-14.08h8.02c4.24,0.01,6.98,2.28,6.96,6.9V227.03z"/>
	<path id="XMLID_32_" class="st15" d="M416.34,236.81c8.38-1.89,12.51-6.83,12.54-15.04c0.06-11.49-8.16-17.96-22.65-17.96
		l-36.74,0.01l-0.16,67.45h35.27c17.03-0.05,25.54-6.32,25.56-19.05C430.18,243.44,424.88,237.52,416.34,236.81 M391.56,218.44
		l8.09,0.01c4.26-0.04,7.05,1.9,7.05,5.85l-0.02,0.18c0,3.75-2.7,5.94-7.16,5.94l-8,0.02L391.56,218.44z M406.94,250.37
		c0.01,3.94-2.77,6.26-7.31,6.24l-8.17,0.02l0.04-12.64h8.26c4.37,0,7.2,2.03,7.22,6.19L406.94,250.37z"/>
	<path id="XMLID_29_" class="st15" d="M743.78,207.17h-4.83v15.95h-2.57v-15.95h-4.76v-2.4h12.16V207.17z M748.61,223.11h-2.57
		v-18.35h3.97l4.68,13.9l4.54-13.9h3.95v18.35h-2.57V207.8h-0.07l-5.1,15.31h-1.66l-5.1-15.31h-0.08V223.11z"/>
</g>
</svg>
