<?xml version="1.0" encoding="utf-8"?>
<!-- Generator: Adobe Illustrator 25.2.1, SVG Export Plug-In . SVG Version: 6.00 Build 0)  -->
<svg version="1.1" id="Layer_1" xmlns="http://www.w3.org/2000/svg" xmlns:xlink="http://www.w3.org/1999/xlink" x="0px" y="0px"
	 viewBox="0 0 192.7 210.4" style="enable-background:new 0 0 192.7 210.4;" xml:space="preserve">
<style type="text/css">
	.st0{fill:url(#SVGID_1_);}
</style>
<linearGradient id="SVGID_1_" gradientUnits="userSpaceOnUse" x1="104.0926" y1="-34.1875" x2="103.511" y2="232.7778">
	<stop  offset="0.1365" style="stop-color:#FFFFFF"/>
	<stop  offset="0.3158" style="stop-color:#FFFFFF"/>
	<stop  offset="0.3466" style="stop-color:#FFFFFF"/>
	<stop  offset="0.3764" style="stop-color:#FAFFFE"/>
	<stop  offset="0.4118" style="stop-color:#ECFFFA"/>
	<stop  offset="0.4499" style="stop-color:#D4FFF5"/>
	<stop  offset="0.4901" style="stop-color:#B2FFED"/>
	<stop  offset="0.5318" style="stop-color:#87FFE3"/>
	<stop  offset="0.5743" style="stop-color:#54FFD7"/>
	<stop  offset="0.6167" style="stop-color:#18FFC9"/>
	<stop  offset="0.7377" style="stop-color:#09AFEB"/>
	<stop  offset="0.802" style="stop-color:#0082FE"/>
</linearGradient>
<path class="st0" d="M179.2,46.6H137l5.1-28.3h-28.8l-3.7,20.8c1.5,0.9,2.9,2,4.2,3.2c4,3.9,8.9,10.8,8.9,22.2
	c0,5.1-0.9,10.1-2.6,14.8c-1.7,4.7-3.4,8.1-5.3,10.7l-0.2,0.3l-5.1,6.5H99.4L91.6,141c-1.1,6.4-1.7,12.9-1.7,19.4
	c0,6.5,1.5,12,4.4,16.5c4.7,7.1,14.3,10.7,28.7,10.7s25.8-5.3,34.2-15.8c8.4-10.6,12.6-24.1,12.6-40.6c0-13.4-2.7-25.3-8.1-35.6
	s-12.1-18.6-20.1-25.1H175L179.2,46.6z M136.3,154.9c-2.5,5.6-5.5,8.5-9,8.5c-5.3,0-8-4.1-8-12.2c0-2.9,0.3-6.4,1-10.3l10.2-58.1
	c2.6,5.3,4.8,12.7,6.7,22c1.9,9.4,2.8,18.7,2.8,27.9C140.1,141.8,138.8,149.2,136.3,154.9z M66.7,75.2c2.8-3.8,6.2-5.8,10-5.8
	c2.3,0,4,0.6,5.3,1.9c1.3,1.3,1.9,3,1.9,5c0,3.8-1.4,7.1-4.2,9.7h25.6l1.9-2.4c1.2-1.7,2.5-4.4,3.8-8c1.3-3.6,1.9-7.3,1.9-11.2
	c0-6.1-1.8-10.9-5.5-14.4c-3.7-3.5-9.2-5.2-16.5-5.2c-9.2,0-16.9,4.6-23.4,13.7l2-11.4H42.8l-14.4,81.5h28.8L66.7,75.2z"/>
</svg>
