<?xml version="1.0" encoding="utf-8"?>
<!-- Generator: Adobe Illustrator 25.2.1, SVG Export Plug-In . SVG Version: 6.00 Build 0)  -->
<svg version="1.1" id="Layer_1" xmlns="http://www.w3.org/2000/svg" xmlns:xlink="http://www.w3.org/1999/xlink" x="0px" y="0px"
	 viewBox="0 0 800 368" style="enable-background:new 0 0 800 368;" xml:space="preserve">
<style type="text/css">
	.st0{fill:#FFFFFF;}
	.st1{stroke:#FFFFFF;stroke-width:25;stroke-miterlimit:10;}
	.st2{fill:none;stroke:#000000;stroke-width:12;stroke-miterlimit:10;}
	.st3{fill:#FFFFFF;stroke:#000000;stroke-width:20;stroke-miterlimit:10;}
</style>
<g>
	<g>
		<path d="M1882.5-404.4c3.8,4.2,6,7,8.5,9.4c7.2,7,6.1,16.1,6.4,24.9c0.2,6.3-3.4,9.6-9.9,9.2c-32.9-2-65.7-4-98.6-6
			c-24.9-1.5-49.8-2.8-74.7-4.3c-5.7-0.3-11.4-0.6-17-1.8c-3.1-0.6-6.6-2.2-8.7-4.4c-5.1-5.4-10-6.2-17.2-3.8
			c-6.2,2.1-13,3.8-19.5,3.7c-57.2-0.7-113.8-8.9-170.6-13.5c-25-2-50.1-3.4-75.2-5c-4.6-0.3-8.8,0.2-10.8,5.4
			c-2.6,6.6-8.2,7-14.2,6.4c-18.7-1.9-37.4-3.9-56.2-5.3c-26.9-2-53.9-3.5-80.9-5.4c-11.2-0.8-22.3-2.1-33.5-3
			c-2.9-0.2-5.9,0.6-8.7,0.4c-2.4-0.2-6.1-0.6-6.9-2.1c-1.3-2.4-2.1-6.9-0.7-8.6c7.9-9.9,14.6-21.2,26.7-26.9c4.3-2,5.3-4.9,1.7-7.4
			c-3.9-2.7-8.7-4.4-13.3-5.8c-3.6-1-7.6-0.4-11.3-1.2c-4.6-1-9.9-1.2-11-7.6c-1.1-6.7-0.5-8.2,7.7-14.3c-3.8-3.4-7.1-7.1-11-9.8
			c-7.7-5.3-12.4-12.9-11.8-21.6c1.3-19.9,3.9-39.8,6.7-59.5c0.7-4.8,4.3-9.3,6.5-13.9c1.2-2.4,2.2-4.9,3.4-7.4
			c1.7-3.6,2.8-7.6,5.2-10.7c3.8-4.9,4-9.8,2.4-15.4c-1.2-4.4-1.8-9-2.7-13.5c-0.3-1.6,0-3.8-0.9-4.9c-5.4-6.2-3-13.2-2.1-19.9
			c0.3-2.2,1.2-5.1,2.8-6.2c7.4-4.9,13.9-11.6,24.3-10.8c52.2,4.2-23.8-2.9,28.5,1c29.9,2.2-0.7,0.1,29.3,2.2
			c6.4,0.5,10.6-2.5,13.7-7.3c2.5-3.9,5.4-4.7,10.1-4.2c24.8,2.3,299,19.3,323.8,21.4c32.2,2.7,3.9,5.3,36.2,7.6
			c46.8,3.4,93.6,6.1,140.4,9.3c31,2.1,62,4.6,92.9,6.8c6.1,0.4,12.2-0.1,18.3-0.4c11-0.5,17,5,16.2,15c-0.6,6.8-6,9.3-11.2,11.6
			c-8.3,3.7-9.3,6.6-4.9,14.2c1,1.8,1.2,4.9,0.3,6.8c-4.3,9.2-5.9,18.7-5.6,28.8c0.2,5.6-1.2,11.2-2.2,16.7
			c-1.1,6-2.7,11.9-3.7,17.9c-0.9,5.7-3,10.3-7,15c-9,10.6-13.4,23.1-13.2,37.4c0.1,5.1-2.3,10.5-4.6,15.3
			c-2.6,5.2-1.6,11.1,4.1,12.6c7.7,1.9,9.2,6.7,9.1,13.6c-0.1,3.8,1.5,7.7,1.8,11.5c0.1,1.7-0.6,3.8-1.8,5
			C1886.7-405.8,1884.6-405.4,1882.5-404.4z"/>
	</g>
	<g>
		<path class="st0" d="M1302.3-599c2-2.8,4.4-4.1,7.2-4.1c1.6,0,2.9,0.5,3.8,1.4c0.9,0.9,1.4,2.1,1.4,3.6c0,2.8-1,5.1-3,6.9h18.4
			l1.3-1.7c0.9-1.2,1.8-3.1,2.7-5.7c0.9-2.6,1.4-5.3,1.4-8c0-4.4-1.3-7.8-4-10.4s-6.6-3.8-11.9-3.8c-6.6,0-12.2,3.3-16.8,9.9
			l1.5-8.2h-19.2l-10.4,58.6h20.7L1302.3-599z"/>
		<path class="st0" d="M1332.9-573.3c0,2.4,0.4,4.6,1.1,6.6c1.2,3.5,4.1,5.8,8.8,6.9c-8.5,5.4-12.8,11.5-12.8,18.4
			c0,4.9,1.8,8.8,5.4,11.8c3.6,3,9.5,4.5,17.7,4.5c8.2,0,15.5-3,21.9-9s10.5-14.2,12.2-24.5l10.7-60.6h-20.7l-6.8,38.9
			c-2.4,2.5-5.3,3.8-8.9,3.8c-4.4,0-6.6-2-6.6-5.8c0-1.5,0.1-2.9,0.4-4.4l5.7-32.4h-20.7l-6.8,38.4
			C1333.1-578.2,1332.9-575.8,1332.9-573.3z M1367.5-563.9l-1.2,7.1c-1.6,9.6-5.1,14.4-10.4,14.4c-1.7,0-3-0.5-4-1.5
			c-0.9-1-1.4-2.3-1.4-4C1350.6-553.3,1356.2-558.7,1367.5-563.9z"/>
		<path class="st0" d="M1395.9-576c0,11.5,6.7,17.2,20,17.2c7.9,0,13.8-3.2,17.9-9.8c1,6.5,5.9,9.8,14.9,9.8c4.2,0,8-1.2,11.4-3.5
			l-0.3,1.8h20.7l6.8-38.9c2.2-2.5,5-3.8,8.4-3.8c3.4,0,5.1,1.8,5.1,5.2c0,1.1-0.1,2.3-0.4,3.8l-2.9,16.2c-0.3,1.9-0.5,3.6-0.5,5.2
			c0,9.3,5.5,13.9,16.6,13.9c4.9,0,9.2-1.6,13-4.8l0.6-13.8c-1.5,0.8-3.1,1.2-5,1.2c-2.4,0-3.7-1.1-3.7-3.3c0-0.4,0-0.8,0.1-1.3
			l3.3-18.8c0.4-2.5,0.6-5.2,0.6-8.2s-0.7-5.5-2.1-7.8c-2.2-3.6-6.9-5.4-14.2-5.4c-7.3,0-13.4,3-18.2,8.9l1.3-7.2h-19.2l-7.8,44
			l0.1-2.2c-1.5,0.8-3.3,1.2-5.4,1.2c-2.1,0-3.2-1-3.2-3.2c0-0.5,0-1,0.1-1.5l6.8-38.4h-18.5l-0.6,3.7c-2.7-3.5-7.8-5.2-15.3-5.2
			s-13.6,2.2-18.3,6.5c-4.7,4.3-7.7,10.2-8.9,17.5l-2.6,14.2C1396.1-580.1,1395.9-578,1395.9-576z M1417.7-585.1l1.6-9.1
			c1.1-6,4.7-9,11-9c3.3,0,5.4,1,6.3,3l-3.7,20.5c-2.1,2.3-4.6,3.4-7.5,3.4s-4.9-0.6-6.2-1.9s-1.8-2.5-1.8-3.8
			C1417.4-583.4,1417.5-584.4,1417.7-585.1z"/>
		<path class="st0" d="M1309.3-490.9h23.9l3.1-17.2h-30.3l3.7-20.4h-20.7l-15.6,88.2c-0.8,4.6-1.2,9.3-1.2,14s1.1,8.6,3.2,11.9
			c3.4,5.1,10.3,7.7,20.7,7.7s18.6-3.8,24.6-11.4c6.1-7.6,9.1-17.3,9.1-29.2c0-9.7-1.9-18.2-5.8-25.6
			C1319.8-480.3,1315-486.3,1309.3-490.9z M1305.4-430.3c-1.8,4.1-3.9,6.1-6.5,6.1c-3.8,0-5.7-2.9-5.7-8.8c0-2.1,0.2-4.6,0.7-7.4
			l7.3-41.8c1.9,3.8,3.5,9.1,4.8,15.8s2,13.4,2,20C1308-439.7,1307.1-434.3,1305.4-430.3z"/>
		<path class="st0" d="M1355.2-476.9h37.2l1.5-8.6c0.3-2.1,0.5-4.1,0.5-5.9c0-12.4-8.2-18.5-24.5-18.5c-9.6,0-17.3,2.1-23.1,6.3
			c-5.8,4.2-9.4,10.2-10.8,18l-2.6,15.1c-0.3,1.9-0.5,3.6-0.5,5.2c0,11.7,8.5,17.5,25.3,17.5c18.5,0,29.1-7.6,31.8-22.8l-20.2-0.2
			c-0.2,1.6-1.1,3.1-2.4,4.3c-1.4,1.2-3,1.8-5,1.8c-5.3,0-7.9-2.2-7.9-6.7c0-0.8,0.1-1.7,0.2-2.7L1355.2-476.9z M1360.4-491.3
			c1.9-1.5,4-2.3,6.3-2.3c2.3,0,4,0.6,5.1,1.8c1.1,1.2,1.6,2.4,1.6,3.6c0,1.2-0.2,2.5-0.5,3.8h-16.4
			C1357.1-487.5,1358.5-489.8,1360.4-491.3z"/>
		<path class="st0" d="M1560.8-510c-9.6,0-17.3,2.1-23.1,6.3c-5.8,4.2-9.4,10.2-10.8,18l-2.6,15.1c-0.3,1.6-0.4,3.2-0.5,4.6
			c-1.3,0.5-2.6,0.8-4.2,0.8c-2.4,0-3.7-1.1-3.7-3.3c0-0.4,0-0.9,0.1-1.3l3.3-18.8c0.4-2.5,0.6-5.2,0.6-8.2c0-2.9-0.7-5.5-2.1-7.8
			c-2.2-3.6-6.9-5.4-14.2-5.4c-7.3,0-13.4,3-18.2,8.9l1.3-7.2h-19.2l-7.4,41.8c-1.4,0.8-3.1,1.2-4.9,1.2c-2.4,0-3.6-1.1-3.6-3.3
			c0-0.4,0-0.9,0.1-1.3l3.3-18.8c0.4-2.5,0.6-5.2,0.6-8.2c0-2.9-0.7-5.5-2.1-7.8c-2.2-3.6-6.9-5.4-14.2-5.4c-7.3,0-13.4,3-18.2,8.9
			l1.3-7.2h-19.2l-10.4,58.6h20.7l6.8-38.9c2.2-2.5,5-3.8,8.3-3.8c3.4,0,5.1,1.8,5.1,5.2c0,1.1-0.1,2.3-0.4,3.8l-2.9,16.2
			c-0.3,1.9-0.5,3.6-0.5,5.2c0,9.3,5.5,13.9,16.6,13.9c4,0,7.6-1.1,10.9-3.2l-0.3,1.5h20.7l6.8-38.9c2.2-2.5,5-3.8,8.4-3.8
			c3.4,0,5.1,1.8,5.1,5.2c0,1.1-0.1,2.3-0.4,3.8l-2.9,16.2c-0.3,1.9-0.5,3.6-0.5,5.2c0,9.3,5.5,13.9,16.6,13.9c4.9,0,9.2-1.6,13-4.8
			l0.2-3.8l2.4,4.9c0,0,1.2-0.6,2.6-1.4c4.2,3.4,10.8,5.1,20,5.1c18.5,0,29.1-7.6,31.8-22.8l-20.2-0.2c-0.2,1.6-1.1,3.1-2.4,4.3
			c-1.4,1.2-3.1,1.8-5,1.8c-5.3,0-7.9-2.2-7.9-6.7c0-0.8,0.1-1.7,0.2-2.7l0.5-2.8h37.2l1.5-8.6c0.3-2.1,0.5-4.1,0.5-5.9
			C1585.3-503.8,1577.2-510,1560.8-510z M1563.9-484.4h-16.4c0.7-3.1,2-5.4,4-6.9c1.9-1.5,4-2.3,6.3-2.3c2.3,0,4,0.6,5.1,1.8
			c1,1.2,1.6,2.4,1.6,3.6C1564.4-487,1564.2-485.8,1563.9-484.4z"/>
		<path class="st0" d="M1645.5-488c1.6-2.3,2.4-4.8,2.4-7.4c0-9.7-8.3-14.5-25-14.5c-10.8,0-19.1,2-24.8,6c-5.7,4-8.6,9.7-8.6,17.1
			c0,3.8,1.1,6.9,3.4,9.3c2.3,2.4,5.1,3.9,8.4,4.6c3.3,0.7,6.6,1.3,9.9,1.6c3.3,0.3,6.1,0.7,8.3,1.2c2.3,0.5,3.4,1.2,3.4,2.4
			c0,1.7-0.7,2.9-2,3.5c-1.3,0.6-3.4,0.9-6.3,0.9c-2.9,0-5.1-0.4-6.6-1.3s-2.2-1.9-2-3l-20.3,0.2c-0.2,1.4-0.4,2.7-0.4,4
			c0,4.5,1.6,8.1,4.9,10.7c4.1,3.3,11.4,5,21.7,5c10.3,0,18.2-1.7,23.6-5.2c5.4-3.5,8.1-8.6,8.1-15.4c0-3.8-1.1-6.9-3.4-9.1
			c-2.3-2.3-5-3.8-8.3-4.6c-3.2-0.8-6.5-1.4-9.8-1.8s-6-0.9-8.3-1.6c-2.3-0.6-3.4-1.7-3.4-3.2c0-3.7,3-5.6,9.1-5.6c2,0,3.7,0.4,5,1
			c1.3,0.7,1.9,1.6,1.9,2.7c0,1.1-0.3,2-1,2.4H1645.5z"/>
		<path class="st0" d="M1707.5-488c1.6-2.3,2.4-4.8,2.4-7.4c0-9.7-8.3-14.5-25-14.5c-10.8,0-19.1,2-24.8,6c-5.7,4-8.6,9.7-8.6,17.1
			c0,3.8,1.1,6.9,3.4,9.3c2.3,2.4,5.1,3.9,8.3,4.6c3.3,0.7,6.6,1.3,9.9,1.6c3.3,0.3,6.1,0.7,8.3,1.2c2.3,0.5,3.4,1.2,3.4,2.4
			c0,1.7-0.7,2.9-1.9,3.5c-1.3,0.6-3.4,0.9-6.3,0.9c-2.9,0-5.1-0.4-6.6-1.3s-2.2-1.9-2-3l-20.3,0.2c-0.2,1.4-0.4,2.7-0.4,4
			c0,4.5,1.6,8.1,4.9,10.7c4.1,3.3,11.4,5,21.7,5c10.3,0,18.2-1.7,23.6-5.2c5.4-3.5,8.1-8.6,8.1-15.4c0-3.8-1.1-6.9-3.4-9.1
			c-2.3-2.3-5-3.8-8.3-4.6c-3.2-0.8-6.5-1.4-9.8-1.8s-6-0.9-8.3-1.6s-3.4-1.7-3.4-3.2c0-3.7,3.1-5.6,9.1-5.6c2,0,3.7,0.4,5,1
			c1.3,0.7,2,1.6,2,2.7c0,1.1-0.3,2-1,2.4H1707.5z"/>
		<path class="st0" d="M1731.8-476.9h37.2l1.5-8.6c0.3-2.1,0.5-4.1,0.5-5.9c0-12.4-8.2-18.5-24.5-18.5c-9.6,0-17.3,2.1-23.1,6.3
			c-5.8,4.2-9.4,10.2-10.8,18l-2.6,15.1c-0.3,1.9-0.5,3.6-0.5,5.2c0,11.7,8.5,17.5,25.3,17.5c18.5,0,29.1-7.6,31.8-22.8l-20.2-0.2
			c-0.2,1.6-1.1,3.1-2.4,4.3c-1.4,1.2-3.1,1.8-5,1.8c-5.3,0-7.9-2.2-7.9-6.7c0-0.8,0.1-1.7,0.2-2.7L1731.8-476.9z M1736.9-491.3
			c1.9-1.5,4-2.3,6.3-2.3c2.3,0,4,0.6,5.1,1.8c1,1.2,1.6,2.4,1.6,3.6c0,1.2-0.2,2.5-0.5,3.8H1733
			C1733.7-487.5,1735-489.8,1736.9-491.3z"/>
		<path class="st0" d="M1816.8-508.1l-6.8,38.9c-2.4,2.5-5.3,3.8-8.9,3.8c-4.4,0-6.6-2-6.6-5.9c0-1.5,0.1-2.9,0.4-4.4l5.7-32.4
			h-20.7l-6.8,38.4c-0.4,2.5-0.6,5-0.6,7.4c0,2.4,0.4,4.6,1.1,6.6c1.2,3.5,4.1,5.8,8.8,6.9c-8.5,5.4-12.8,11.5-12.8,18.4
			c0,4.9,1.8,8.8,5.4,11.8c3.6,3,9.5,4.5,17.7,4.5c8.2,0,15.5-3,21.9-9c6.4-6,10.5-14.2,12.2-24.5l10.7-60.5L1816.8-508.1
			L1816.8-508.1z M1805.8-445.9c-1.6,9.6-5.1,14.4-10.4,14.4c-1.7,0-3-0.5-4-1.5c-0.9-1-1.4-2.3-1.4-4c0-5.4,5.6-10.7,16.9-16
			L1805.8-445.9z"/>
	</g>
</g>
<g>
	<g>
		<path class="st1" d="M735,295.3c3.8,4.2,6,7,8.5,9.4c7.2,7,6.1,16.1,6.4,24.9c0.2,6.3-3.4,9.6-9.9,9.2c-32.9-2-65.7-4-98.6-6
			c-24.9-1.5-49.8-2.8-74.7-4.3c-5.7-0.3-11.4-0.6-17-1.8c-3.1-0.6-6.6-2.2-8.7-4.4c-5.1-5.4-10-6.2-17.2-3.8
			c-6.2,2.1-13,3.8-19.5,3.7c-57.2-0.7-113.8-8.9-170.6-13.5c-25-2-50.1-3.4-75.2-5c-4.6-0.3-8.8,0.2-10.9,5.4
			c-2.6,6.6-8.2,7-14.2,6.4c-18.7-1.9-37.4-3.9-56.2-5.3c-26.9-2-53.9-3.5-80.9-5.4c-11.2-0.8-22.3-2.1-33.5-3
			c-2.9-0.2-5.9,0.6-8.7,0.4c-2.5-0.2-6.1-0.6-6.9-2.1c-1.3-2.4-2.1-6.9-0.7-8.6c7.9-9.9,14.6-21.2,26.7-26.9c4.3-2,5.3-4.9,1.7-7.4
			c-3.9-2.7-8.7-4.4-13.4-5.8c-3.6-1-7.6-0.4-11.3-1.2c-4.6-1-9.9-1.2-11-7.6c-1.1-6.7-0.5-8.2,7.7-14.3c-3.8-3.4-7.1-7.1-11-9.8
			c-7.7-5.3-12.4-12.9-11.8-21.6c1.3-19.9,3.9-39.8,6.7-59.5c0.7-4.8,4.3-9.3,6.5-13.9c1.2-2.4,2.2-4.9,3.4-7.4
			c1.7-3.6,2.8-7.6,5.2-10.7c3.8-4.9,4-9.8,2.4-15.4c-1.2-4.4-1.8-9-2.7-13.5c-0.3-1.6,0-3.8-0.9-4.8c-5.4-6.2-3-13.2-2.1-19.9
			c0.3-2.2,1.2-5.1,2.8-6.2c7.5-4.9,13.9-11.6,24.3-10.8c52.2,4.2-23.8-2.8,28.5,1c29.9,2.2-0.7,0.1,29.3,2.2
			c6.4,0.5,10.6-2.5,13.7-7.3c2.5-3.9,5.4-4.7,10.1-4.2c24.8,2.3,299,19.3,323.8,21.4c32.2,2.7,3.9,5.3,36.2,7.6
			c46.8,3.4,93.6,6.1,140.4,9.3c31,2.1,62,4.6,92.9,6.8c6.1,0.4,12.2-0.1,18.3-0.4c11-0.5,17,5,16.2,15c-0.6,6.8-6,9.3-11.2,11.6
			c-8.3,3.7-9.3,6.6-5,14.2c1,1.8,1.2,4.9,0.3,6.8c-4.3,9.2-5.9,18.7-5.6,28.8c0.2,5.6-1.2,11.2-2.2,16.7c-1.1,6-2.7,11.9-3.7,17.9
			c-0.9,5.7-3,10.3-7,15c-9,10.6-13.4,23.1-13.2,37.4c0.1,5.1-2.3,10.5-4.6,15.3c-2.6,5.2-1.6,11.1,4.1,12.6
			c7.7,1.9,9.2,6.7,9.1,13.6c-0.1,3.8,1.5,7.7,1.8,11.5c0.1,1.7-0.6,3.8-1.8,5C739.2,293.8,737.1,294.2,735,295.3z"/>
	</g>
	<g>
		<path d="M735,295.3c3.8,4.2,6,7,8.5,9.4c7.2,7,6.1,16.1,6.4,24.9c0.2,6.3-3.4,9.6-9.9,9.2c-32.9-2-65.7-4-98.6-6
			c-24.9-1.5-49.8-2.8-74.7-4.3c-5.7-0.3-11.4-0.6-17-1.8c-3.1-0.6-6.6-2.2-8.7-4.4c-5.1-5.4-10-6.2-17.2-3.8
			c-6.2,2.1-13,3.8-19.5,3.7c-57.2-0.7-113.8-8.9-170.6-13.5c-25-2-50.1-3.4-75.2-5c-4.6-0.3-8.8,0.2-10.9,5.4
			c-2.6,6.6-8.2,7-14.2,6.4c-18.7-1.9-37.4-3.9-56.2-5.3c-26.9-2-53.9-3.5-80.9-5.4c-11.2-0.8-22.3-2.1-33.5-3
			c-2.9-0.2-5.9,0.6-8.7,0.4c-2.5-0.2-6.1-0.6-6.9-2.1c-1.3-2.4-2.1-6.9-0.7-8.6c7.9-9.9,14.6-21.2,26.7-26.9c4.3-2,5.3-4.9,1.7-7.4
			c-3.9-2.7-8.7-4.4-13.4-5.8c-3.6-1-7.6-0.4-11.3-1.2c-4.6-1-9.9-1.2-11-7.6c-1.1-6.7-0.5-8.2,7.7-14.3c-3.8-3.4-7.1-7.1-11-9.8
			c-7.7-5.3-12.4-12.9-11.8-21.6c1.3-19.9,3.9-39.8,6.7-59.5c0.7-4.8,4.3-9.3,6.5-13.9c1.2-2.4,2.2-4.9,3.4-7.4
			c1.7-3.6,2.8-7.6,5.2-10.7c3.8-4.9,4-9.8,2.4-15.4c-1.2-4.4-1.8-9-2.7-13.5c-0.3-1.6,0-3.8-0.9-4.8c-5.4-6.2-3-13.2-2.1-19.9
			c0.3-2.2,1.2-5.1,2.8-6.2c7.5-4.9,13.9-11.6,24.3-10.8c52.2,4.2-23.8-2.8,28.5,1c29.9,2.2-0.7,0.1,29.3,2.2
			c6.4,0.5,10.6-2.5,13.7-7.3c2.5-3.9,5.4-4.7,10.1-4.2c24.8,2.3,299,19.3,323.8,21.4c32.2,2.7,3.9,5.3,36.2,7.6
			c46.8,3.4,93.6,6.1,140.4,9.3c31,2.1,62,4.6,92.9,6.8c6.1,0.4,12.2-0.1,18.3-0.4c11-0.5,17,5,16.2,15c-0.6,6.8-6,9.3-11.2,11.6
			c-8.3,3.7-9.3,6.6-5,14.2c1,1.8,1.2,4.9,0.3,6.8c-4.3,9.2-5.9,18.7-5.6,28.8c0.2,5.6-1.2,11.2-2.2,16.7c-1.1,6-2.7,11.9-3.7,17.9
			c-0.9,5.7-3,10.3-7,15c-9,10.6-13.4,23.1-13.2,37.4c0.1,5.1-2.3,10.5-4.6,15.3c-2.6,5.2-1.6,11.1,4.1,12.6
			c7.7,1.9,9.2,6.7,9.1,13.6c-0.1,3.8,1.5,7.7,1.8,11.5c0.1,1.7-0.6,3.8-1.8,5C739.2,293.8,737.1,294.2,735,295.3z"/>
	</g>
	<g>
		<g>
			<path class="st2" d="M208.7,205.7h37.2l1.5-8.6c0.3-2.1,0.5-4.1,0.5-5.9c0-12.4-8.2-18.5-24.5-18.5c-9.6,0-17.3,2.1-23.1,6.3
				c-5.8,4.2-9.4,10.2-10.8,18l-2.6,15.1c-0.3,1.9-0.5,3.6-0.5,5.2c0,11.7,8.4,17.5,25.3,17.5c18.5,0,29.1-7.6,31.8-22.8l-20.2-0.2
				c-0.2,1.6-1.1,3.1-2.4,4.3c-1.4,1.2-3.1,1.8-5,1.8c-5.3,0-7.9-2.2-7.9-6.7c0-0.8,0.1-1.7,0.2-2.7L208.7,205.7z M213.9,191.3
				c1.9-1.5,4-2.3,6.3-2.3c2.3,0,4,0.6,5.1,1.8c1.1,1.2,1.6,2.4,1.6,3.6c0,1.2-0.2,2.5-0.5,3.8h-16.4
				C210.6,195.2,212,192.8,213.9,191.3z"/>
			<path class="st0" d="M208.7,205.7h37.2l1.5-8.6c0.3-2.1,0.5-4.1,0.5-5.9c0-12.4-8.2-18.5-24.5-18.5c-9.6,0-17.3,2.1-23.1,6.3
				c-5.8,4.2-9.4,10.2-10.8,18l-2.6,15.1c-0.3,1.9-0.5,3.6-0.5,5.2c0,11.7,8.4,17.5,25.3,17.5c18.5,0,29.1-7.6,31.8-22.8l-20.2-0.2
				c-0.2,1.6-1.1,3.1-2.4,4.3c-1.4,1.2-3.1,1.8-5,1.8c-5.3,0-7.9-2.2-7.9-6.7c0-0.8,0.1-1.7,0.2-2.7L208.7,205.7z"/>
			<path class="st0" d="M162.8,191.7h23.9l3.1-17.2h-30.3l3.9-19.5h-20.7l-15.8,87.3c-0.8,4.6-1.2,9.3-1.2,14s1.1,8.6,3.2,11.9
				c3.4,5.1,10.3,7.7,20.6,7.7s18.6-3.8,24.6-11.4c6.1-7.6,9.1-17.3,9.1-29.2c0-9.7-1.9-18.2-5.8-25.6
				C173.3,202.3,168.5,196.3,162.8,191.7z M158.9,252.3c-1.8,4.1-3.9,6.1-6.5,6.1c-3.8,0-5.7-2.9-5.7-8.8c0-2.1,0.2-4.6,0.7-7.4
				l7.3-41.8c1.9,3.8,3.5,9.1,4.8,15.8c1.3,6.7,2,13.4,2,20C161.5,242.9,160.6,248.3,158.9,252.3z"/>
			<path class="st0" d="M414.3,172.7c-9.6,0-17.3,2.1-23.1,6.3c-5.8,4.2-9.4,10.2-10.8,18l-2.6,15.1c-0.3,1.6-0.4,3.2-0.5,4.6
				c-1.3,0.5-2.6,0.8-4.2,0.8c-2.4,0-3.6-1.1-3.6-3.3c0-0.4,0-0.9,0.1-1.3l3.3-18.8c0.4-2.5,0.6-5.2,0.6-8.2s-0.7-5.5-2.1-7.8
				c-2.2-3.6-6.9-5.4-14.2-5.4s-13.4,3-18.1,8.9l1.3-7.2h-19.2l-7.4,41.8c-1.4,0.8-3.1,1.2-4.9,1.2c-2.4,0-3.6-1.1-3.6-3.3
				c0-0.4,0-0.9,0.1-1.3l3.3-18.8c0.4-2.5,0.6-5.2,0.6-8.2s-0.7-5.5-2.1-7.8c-2.2-3.6-6.9-5.4-14.2-5.4s-13.4,3-18.1,8.9l1.3-7.2
				H257l-10.4,58.6h20.7l6.8-38.9c2.2-2.5,5-3.8,8.4-3.8c3.4,0,5.1,1.8,5.1,5.2c0,1.1-0.1,2.3-0.4,3.8l-2.9,16.2
				c-0.3,1.9-0.5,3.6-0.5,5.2c0,9.3,5.5,13.9,16.6,13.9c4,0,7.6-1.1,10.9-3.2l-0.3,1.5h20.7l6.8-38.9c2.2-2.5,5-3.8,8.4-3.8
				c3.4,0,5.1,1.8,5.1,5.2c0,1.1-0.1,2.3-0.4,3.8l-2.9,16.2c-0.3,1.9-0.5,3.6-0.5,5.2c0,9.3,5.5,13.9,16.6,13.9
				c9.9,0,16.7-4.3,18.2-5.1c4.2,3.4,10.8,5.1,20,5.1c18.5,0,29.1-7.6,31.8-22.8l-20.2-0.2c-0.2,1.6-1.1,3.1-2.4,4.3
				c-1.4,1.2-3,1.8-5,1.8c-5.3,0-7.9-2.2-7.9-6.7c0-0.8,0.1-1.7,0.2-2.7l0.5-2.8h37.2l1.5-8.6c0.3-2.1,0.5-4.1,0.5-5.9
				C438.8,178.8,430.7,172.7,414.3,172.7z M417.4,198.2h-16.5c0.7-3.1,2-5.4,4-6.9c1.9-1.5,4-2.3,6.3-2.3s4,0.6,5.1,1.8
				c1,1.2,1.6,2.4,1.6,3.6C417.9,195.6,417.7,196.9,417.4,198.2z"/>
			<path class="st0" d="M499,194.6c1.6-2.3,2.4-4.8,2.4-7.4c0-9.7-8.3-14.5-25-14.5c-10.8,0-19.1,2-24.8,6c-5.7,4-8.6,9.7-8.6,17.1
				c0,3.8,1.1,6.9,3.4,9.3s5.1,3.9,8.4,4.6c3.3,0.7,6.6,1.3,9.9,1.6c3.3,0.3,6.1,0.7,8.3,1.2s3.4,1.2,3.4,2.4c0,1.7-0.6,2.9-2,3.5
				c-1.3,0.6-3.4,0.9-6.3,0.9c-2.9,0-5.1-0.4-6.6-1.3s-2.2-1.9-2-3l-20.4,0.2c-0.2,1.4-0.4,2.7-0.4,4c0,4.6,1.6,8.1,4.9,10.7
				c4.1,3.3,11.4,5,21.7,5c10.3,0,18.2-1.7,23.6-5.2c5.4-3.5,8.1-8.6,8.1-15.4c0-3.8-1.1-6.9-3.4-9.1c-2.3-2.3-5-3.8-8.3-4.6
				c-3.2-0.8-6.5-1.4-9.8-1.8s-6-0.9-8.3-1.6c-2.3-0.6-3.4-1.7-3.4-3.2c0-3.7,3-5.6,9.1-5.6c2,0,3.7,0.4,5,1c1.3,0.7,2,1.6,2,2.7
				s-0.3,1.9-1,2.4H499z"/>
			<path class="st0" d="M561,194.6c1.6-2.3,2.4-4.8,2.4-7.4c0-9.7-8.3-14.5-25-14.5c-10.8,0-19.1,2-24.8,6c-5.7,4-8.6,9.7-8.6,17.1
				c0,3.8,1.1,6.9,3.4,9.3s5.1,3.9,8.3,4.6c3.3,0.7,6.6,1.3,9.9,1.6c3.3,0.3,6.1,0.7,8.3,1.2s3.4,1.2,3.4,2.4c0,1.7-0.7,2.9-2,3.5
				s-3.4,0.9-6.3,0.9c-2.9,0-5.1-0.4-6.6-1.3s-2.2-1.9-2-3l-20.3,0.2c-0.2,1.4-0.4,2.7-0.4,4c0,4.6,1.6,8.1,4.9,10.7
				c4.1,3.3,11.4,5,21.7,5c10.3,0,18.2-1.7,23.6-5.2c5.4-3.5,8.1-8.6,8.1-15.4c0-3.8-1.1-6.9-3.4-9.1c-2.3-2.3-5-3.8-8.3-4.6
				c-3.2-0.8-6.5-1.4-9.8-1.8s-6-0.9-8.3-1.6c-2.3-0.6-3.4-1.7-3.4-3.2c0-3.7,3-5.6,9.1-5.6c2,0,3.7,0.4,5,1c1.3,0.7,2,1.6,2,2.7
				s-0.3,1.9-1,2.4H561z"/>
			<path class="st0" d="M585.3,205.7h37.2l1.5-8.6c0.3-2.1,0.5-4.1,0.5-5.9c0-12.4-8.2-18.5-24.5-18.5c-9.6,0-17.3,2.1-23.1,6.3
				c-5.8,4.2-9.4,10.2-10.8,18l-2.6,15.1c-0.3,1.9-0.5,3.6-0.5,5.2c0,11.7,8.5,17.5,25.3,17.5c18.5,0,29.1-7.6,31.8-22.8l-20.2-0.2
				c-0.2,1.6-1.1,3.1-2.4,4.3c-1.4,1.2-3,1.8-5,1.8c-5.3,0-7.9-2.2-7.9-6.7c0-0.8,0.1-1.7,0.2-2.7L585.3,205.7z M590.4,191.3
				c1.9-1.5,4-2.3,6.3-2.3s4,0.6,5.1,1.8c1,1.2,1.6,2.4,1.6,3.6c0,1.2-0.2,2.5-0.5,3.8h-16.5C587.2,195.2,588.5,192.8,590.4,191.3z"
				/>
			<path class="st0" d="M670.3,174.5l-6.8,38.9c-2.4,2.5-5.3,3.8-8.9,3.8c-4.4,0-6.6-1.9-6.6-5.9c0-1.5,0.1-2.9,0.4-4.4l5.7-32.4
				h-20.7l-6.8,38.4c-0.4,2.5-0.6,5-0.6,7.4c0,2.4,0.4,4.6,1.1,6.6c1.2,3.5,4.1,5.8,8.8,6.9c-8.5,5.4-12.8,11.5-12.8,18.4
				c0,4.9,1.8,8.8,5.4,11.8c3.6,3,9.5,4.5,17.7,4.5c8.2,0,15.5-3,21.9-9c6.4-6,10.5-14.2,12.2-24.5l10.7-60.6L670.3,174.5
				L670.3,174.5z M659.3,236.7c-1.6,9.6-5.1,14.4-10.4,14.4c-1.7,0-3-0.5-4-1.5c-0.9-1-1.4-2.3-1.4-4c0-5.4,5.6-10.7,16.9-16
				L659.3,236.7z"/>
		</g>
		<g>
			<path class="st3" d="M203.4,127.3c0,2.4,0.4,4.6,1.1,6.6c1.2,3.5,4.1,5.8,8.8,6.9c-8.5,5.4-12.8,11.5-12.8,18.4
				c0,4.9,1.8,8.8,5.4,11.8c3.6,3,9.5,4.5,17.7,4.5c8.2,0,15.5-3,21.9-9c6.4-6,10.5-14.2,12.2-24.5l10.7-60.5h-20.7l-6.8,38.9
				c-2.4,2.5-5.3,3.8-8.9,3.8c-4.4,0-6.6-1.9-6.6-5.8c0-1.5,0.1-2.9,0.4-4.4l5.7-32.4h-20.7l-6.8,38.4
				C203.6,122.4,203.4,124.9,203.4,127.3z M238,136.7l-1.2,7.1c-1.6,9.6-5.1,14.4-10.4,14.4c-1.7,0-3-0.5-4-1.5
				c-0.9-1-1.4-2.3-1.4-4C221.1,147.3,226.7,142,238,136.7z"/>
			<path class="st0" d="M172.8,101.6c2-2.8,4.4-4.1,7.2-4.1c1.6,0,2.9,0.5,3.8,1.4c0.9,0.9,1.4,2.1,1.4,3.6c0,2.8-1,5.1-3.1,6.9
				h18.4l1.3-1.7c0.9-1.2,1.8-3.1,2.7-5.7c0.9-2.6,1.4-5.3,1.4-8c0-4.4-1.3-7.8-4-10.4c-2.6-2.5-6.6-3.8-11.9-3.8
				c-6.6,0-12.2,3.3-16.8,9.9l1.5-8.2h-19.2l-10.4,58.6H166L172.8,101.6z"/>
			<path class="st0" d="M203.4,127.3c0,2.4,0.4,4.6,1.1,6.6c1.2,3.5,4.1,5.8,8.8,6.9c-8.5,5.4-12.8,11.5-12.8,18.4
				c0,4.9,1.8,8.8,5.4,11.8c3.6,3,9.5,4.5,17.7,4.5c8.2,0,15.5-3,21.9-9c6.4-6,10.5-14.2,12.2-24.5l10.7-60.5h-20.7l-6.8,38.9
				c-2.4,2.5-5.3,3.8-8.9,3.8c-4.4,0-6.6-1.9-6.6-5.8c0-1.5,0.1-2.9,0.4-4.4l5.7-32.4h-20.7l-6.8,38.4
				C203.6,122.4,203.4,124.9,203.4,127.3z M238,136.7l-1.2,7.1c-1.6,9.6-5.1,14.4-10.4,14.4c-1.7,0-3-0.5-4-1.5
				c-0.9-1-1.4-2.3-1.4-4C221.1,147.3,226.7,142,238,136.7z"/>
			<path class="st0" d="M266.4,124.6c0,11.4,6.7,17.2,20,17.2c7.9,0,13.9-3.2,17.9-9.8c1,6.5,5.9,9.8,14.9,9.8c4.1,0,8-1.2,11.4-3.5
				l-0.3,1.8h20.7l6.8-38.9c2.2-2.5,5-3.8,8.4-3.8c3.4,0,5.1,1.8,5.1,5.2c0,1.1-0.1,2.3-0.4,3.8l-2.9,16.2c-0.3,1.9-0.5,3.6-0.5,5.2
				c0,9.3,5.5,13.9,16.6,13.9c4.9,0,9.2-1.6,13-4.8l0.6-13.8c-1.5,0.8-3.1,1.2-5,1.2c-2.4,0-3.6-1.1-3.6-3.3c0-0.4,0-0.8,0.1-1.3
				l3.3-18.8c0.4-2.5,0.6-5.2,0.6-8.2c0-2.9-0.7-5.5-2.1-7.8c-2.2-3.6-6.9-5.4-14.2-5.4s-13.4,3-18.1,8.9l1.3-7.2h-19.2l-7.8,44
				l0.1-2.2c-1.5,0.8-3.3,1.2-5.4,1.2c-2.1,0-3.2-1.1-3.2-3.2c0-0.5,0-1,0.1-1.5l6.8-38.4h-18.5l-0.6,3.7c-2.7-3.5-7.8-5.2-15.3-5.2
				s-13.6,2.2-18.3,6.5c-4.7,4.3-7.7,10.2-9,17.5l-2.6,14.2C266.6,120.5,266.4,122.7,266.4,124.6z M288.2,115.5l1.6-9.1
				c1-6,4.7-9,11-9c3.3,0,5.4,1,6.3,3.1l-3.7,20.5c-2.1,2.3-4.6,3.4-7.5,3.4s-4.9-0.6-6.1-1.9s-1.8-2.5-1.8-3.8
				C287.9,117.2,288,116.2,288.2,115.5z"/>
		</g>
	</g>
</g>
</svg>
