<?xml version="1.0" encoding="utf-8"?>
<!-- Generator: Adobe Illustrator 25.2.1, SVG Export Plug-In . SVG Version: 6.00 Build 0)  -->
<svg version="1.1" id="Layer_1" xmlns="http://www.w3.org/2000/svg" xmlns:xlink="http://www.w3.org/1999/xlink" x="0px" y="0px"
	 viewBox="0 0 1920 191.5" style="enable-background:new 0 0 1920 191.5;" xml:space="preserve">
<style type="text/css">
	.st0{fill:#FF00D8;}
	.st1{fill:#0082FE;}
	.st2{fill:#00FFC3;}
	.st3{clip-path:url(#SVGID_2_);}
	.st4{opacity:0.5;}
	.st5{fill:#FFFFFF;}
	.st6{fill:none;stroke:#FF00D8;stroke-width:3;stroke-miterlimit:10;}
	.st7{fill:none;stroke:#0082FE;stroke-width:17.1237;stroke-miterlimit:10;}
	.st8{fill:none;stroke:#0082FE;stroke-width:15.0015;stroke-linecap:round;stroke-linejoin:round;stroke-miterlimit:10;}
	.st9{fill:none;stroke:#FF00D8;stroke-width:15.5825;stroke-linecap:round;stroke-linejoin:round;stroke-miterlimit:10;}
	.st10{clip-path:url(#SVGID_4_);}
	.st11{clip-path:url(#SVGID_5_);}
	.st12{clip-path:url(#SVGID_6_);}
	.st13{clip-path:url(#SVGID_8_);}
	.st14{clip-path:url(#SVGID_10_);}
	.st15{clip-path:url(#SVGID_12_);}
	.st16{clip-path:url(#SVGID_13_);}
	.st17{clip-path:url(#SVGID_14_);}
	.st18{clip-path:url(#SVGID_16_);}
	.st19{clip-path:url(#SVGID_18_);}
	.st20{fill:none;stroke:#FF00D8;stroke-width:3.3362;stroke-miterlimit:10;}
	.st21{fill:none;stroke:#0082FE;stroke-width:3.3362;stroke-miterlimit:10;}
	.st22{fill:none;stroke:#0082FE;stroke-width:3.3362;stroke-linecap:round;stroke-linejoin:round;stroke-miterlimit:10;}
	.st23{fill:none;stroke:#FF00D8;stroke-width:3.3362;stroke-linecap:round;stroke-linejoin:round;stroke-miterlimit:10;}
	.st24{fill:none;stroke:#FF00D8;stroke-width:12.4711;stroke-miterlimit:10;}
	.st25{clip-path:url(#SVGID_20_);}
	.st26{fill:none;stroke:#0082FE;stroke-width:0.4938;stroke-linejoin:round;stroke-miterlimit:10;}
</style>
<g>
	<g>
		<defs>
			<rect id="SVGID_19_" x="0" y="0" width="1920" height="191.6"/>
		</defs>
		<clipPath id="SVGID_2_">
			<use xlink:href="#SVGID_19_"  style="overflow:visible;"/>
		</clipPath>
		<g class="st3">
			<defs>
				<rect id="SVGID_22_" x="0" y="-59.6" width="1920" height="251.1"/>
			</defs>
			<use xlink:href="#SVGID_22_"  style="overflow:visible;"/>
			<clipPath id="SVGID_4_">
				<use xlink:href="#SVGID_22_"  style="overflow:visible;"/>
			</clipPath>
		</g>
		<g class="st3">
			<g>
				<line class="st26" x1="16.9" y1="-165.3" x2="16.9" y2="451.9"/>
				<line class="st26" x1="58.8" y1="-165.3" x2="58.8" y2="451.9"/>
				<line class="st26" x1="100.7" y1="-165.3" x2="100.7" y2="451.9"/>
				<line class="st26" x1="142.6" y1="-165.3" x2="142.6" y2="451.9"/>
				<line class="st26" x1="226.4" y1="-165.3" x2="226.4" y2="451.9"/>
				<line class="st26" x1="310.3" y1="-165.3" x2="310.3" y2="451.9"/>
				<line class="st26" x1="394.1" y1="-165.3" x2="394.1" y2="451.9"/>
				<line class="st26" x1="477.9" y1="-165.3" x2="477.9" y2="451.9"/>
				<line class="st26" x1="561.7" y1="-165.3" x2="561.7" y2="451.9"/>
				<line class="st26" x1="645.5" y1="-165.3" x2="645.5" y2="451.9"/>
				<line class="st26" x1="729.3" y1="-165.3" x2="729.3" y2="451.9"/>
				<line class="st26" x1="813.2" y1="-165.3" x2="813.2" y2="451.9"/>
				<line class="st26" x1="897" y1="-165.3" x2="897" y2="451.9"/>
				<line class="st26" x1="980.8" y1="-165.3" x2="980.8" y2="451.9"/>
				<line class="st26" x1="1064.6" y1="-165.3" x2="1064.6" y2="451.9"/>
				<line class="st26" x1="1148.4" y1="-165.3" x2="1148.4" y2="451.9"/>
				<line class="st26" x1="1232.2" y1="-165.3" x2="1232.2" y2="451.9"/>
				<line class="st26" x1="1316" y1="-165.3" x2="1316" y2="451.9"/>
				<line class="st26" x1="1399.9" y1="-165.3" x2="1399.9" y2="451.9"/>
				<line class="st26" x1="1483.7" y1="-165.3" x2="1483.7" y2="451.9"/>
				<line class="st26" x1="1567.5" y1="-165.3" x2="1567.5" y2="451.9"/>
				<line class="st26" x1="1651.3" y1="-165.3" x2="1651.3" y2="451.9"/>
				<line class="st26" x1="1735.1" y1="-165.3" x2="1735.1" y2="451.9"/>
				<line class="st26" x1="1818.9" y1="-165.3" x2="1818.9" y2="451.9"/>
				<line class="st26" x1="184.5" y1="-165.3" x2="184.5" y2="451.9"/>
				<line class="st26" x1="268.4" y1="-165.3" x2="268.4" y2="451.9"/>
				<line class="st26" x1="352.2" y1="-165.3" x2="352.2" y2="451.9"/>
				<line class="st26" x1="436" y1="-165.3" x2="436" y2="451.9"/>
				<line class="st26" x1="519.8" y1="-165.3" x2="519.8" y2="451.9"/>
				<line class="st26" x1="603.6" y1="-165.3" x2="603.6" y2="451.9"/>
				<line class="st26" x1="687.4" y1="-165.3" x2="687.4" y2="451.9"/>
				<line class="st26" x1="771.2" y1="-165.3" x2="771.2" y2="451.9"/>
				<line class="st26" x1="855.1" y1="-165.3" x2="855.1" y2="451.9"/>
				<line class="st26" x1="938.9" y1="-165.3" x2="938.9" y2="451.9"/>
				<line class="st26" x1="1022.7" y1="-165.3" x2="1022.7" y2="451.9"/>
				<line class="st26" x1="1106.5" y1="-165.3" x2="1106.5" y2="451.9"/>
				<line class="st26" x1="1190.3" y1="-165.3" x2="1190.3" y2="451.9"/>
				<line class="st26" x1="1274.1" y1="-165.3" x2="1274.1" y2="451.9"/>
				<line class="st26" x1="1358" y1="-165.3" x2="1358" y2="451.9"/>
				<line class="st26" x1="1441.8" y1="-165.3" x2="1441.8" y2="451.9"/>
				<line class="st26" x1="1525.6" y1="-165.3" x2="1525.6" y2="451.9"/>
				<line class="st26" x1="1609.4" y1="-165.3" x2="1609.4" y2="451.9"/>
				<line class="st26" x1="1693.2" y1="-165.3" x2="1693.2" y2="451.9"/>
				<line class="st26" x1="1777" y1="-165.3" x2="1777" y2="451.9"/>
				<line class="st26" x1="1860.8" y1="-165.3" x2="1860.8" y2="451.9"/>
				<line class="st26" x1="1902.8" y1="-165.3" x2="1902.8" y2="451.9"/>
			</g>
			<g>
				<line class="st26" x1="2042.5" y1="74.6" x2="-31.8" y2="74.6"/>
				<line class="st26" x1="2042.5" y1="158.4" x2="-31.8" y2="158.4"/>
				<line class="st26" x1="2042.5" y1="32.7" x2="-31.8" y2="32.7"/>
				<line class="st26" x1="2042.5" y1="116.5" x2="-31.8" y2="116.5"/>
			</g>
		</g>
	</g>
</g>
</svg>
