<?xml version="1.0" encoding="utf-8"?>
<!-- Generator: Adobe Illustrator 25.2.1, SVG Export Plug-In . SVG Version: 6.00 Build 0)  -->
<svg version="1.1" id="Layer_1" xmlns="http://www.w3.org/2000/svg" xmlns:xlink="http://www.w3.org/1999/xlink" x="0px" y="0px"
	 viewBox="0 0 800 368" style="enable-background:new 0 0 800 368;" xml:space="preserve">
<style type="text/css">
	.st0{fill:#FFFFFF;}
	.st1{stroke:#FFFFFF;stroke-width:15;stroke-miterlimit:10;}
</style>
<g>
	<g>
		<path class="st0" d="M730.1,296.8c3.8,4.2,6,7,8.5,9.4c7.2,7,6.1,16.1,6.4,24.9c0.2,6.3-3.4,9.6-9.9,9.2c-32.9-2-65.7-4-98.6-6
			c-24.9-1.5-49.8-2.8-74.7-4.3c-5.7-0.3-11.4-0.6-17-1.8c-3.1-0.6-6.6-2.2-8.7-4.4c-5.1-5.4-10-6.2-17.2-3.8
			c-6.2,2.1-13,3.8-19.5,3.7c-57.2-0.7-113.8-8.9-170.6-13.5c-25-2-50.1-3.4-75.2-5c-4.6-0.3-8.8,0.2-10.9,5.4
			c-2.6,6.6-8.2,7-14.2,6.4c-18.7-1.9-37.4-3.9-56.2-5.3c-26.9-2-53.9-3.5-80.9-5.4c-11.2-0.8-22.3-2.1-33.5-3
			c-2.9-0.2-5.9,0.6-8.7,0.4c-2.5-0.2-6.1-0.6-6.9-2.1c-1.3-2.4-2.1-6.9-0.7-8.6c7.9-9.9,14.6-21.2,26.7-26.9c4.3-2,5.3-4.9,1.7-7.4
			c-3.9-2.7-8.7-4.4-13.3-5.8c-3.6-1-7.6-0.4-11.3-1.2c-4.6-1-9.9-1.2-11-7.6c-1.1-6.7-0.5-8.2,7.7-14.3c-3.8-3.4-7.1-7.1-11-9.8
			c-7.7-5.3-12.4-12.9-11.8-21.6c1.3-19.9,3.9-39.8,6.7-59.5c0.7-4.8,4.3-9.3,6.5-13.9c1.2-2.4,2.2-4.9,3.4-7.4
			c1.7-3.6,2.8-7.6,5.2-10.7c3.8-4.9,4-9.8,2.4-15.4c-1.2-4.4-1.8-9-2.7-13.5c-0.3-1.6,0-3.8-0.9-4.8c-5.4-6.2-3-13.2-2.1-19.9
			c0.3-2.2,1.2-5.1,2.8-6.2c7.5-4.9,13.9-11.6,24.3-10.8c52.2,4.2-23.8-2.8,28.5,1c29.9,2.2-0.7,0.1,29.3,2.2
			c6.4,0.5,10.6-2.5,13.7-7.3c2.5-3.9,5.4-4.7,10.1-4.3c24.8,2.3,299,19.3,323.8,21.4c32.2,2.7,3.9,5.3,36.2,7.6
			c46.8,3.4,93.6,6.1,140.5,9.3c31,2.1,62,4.6,92.9,6.8c6.1,0.4,12.2-0.1,18.3-0.4c11-0.5,17,5,16.2,15c-0.6,6.8-6,9.3-11.2,11.6
			c-8.3,3.7-9.3,6.6-5,14.2c1,1.8,1.2,4.9,0.3,6.8c-4.3,9.2-5.9,18.7-5.6,28.8c0.2,5.6-1.2,11.2-2.2,16.7c-1.1,6-2.7,11.9-3.7,17.9
			c-0.9,5.7-3,10.3-7,15c-9,10.6-13.4,23.1-13.2,37.4c0.1,5.1-2.3,10.5-4.6,15.3c-2.6,5.2-1.6,11.1,4.1,12.5
			c7.7,1.9,9.2,6.7,9.1,13.6c-0.1,3.8,1.5,7.7,1.8,11.5c0.1,1.7-0.6,3.8-1.8,5C734.3,295.3,732.2,295.8,730.1,296.8z"/>
	</g>
	<g>
		<g>
			<g>
				<path d="M189.1,211.2h38.7l1.5-9c0.3-2.2,0.5-4.2,0.5-6.1c0-12.8-8.5-19.3-25.5-19.3c-10,0-18,2.2-24,6.5s-9.8,10.6-11.2,18.7
					l-2.7,15.7c-0.3,1.9-0.5,3.8-0.5,5.5c0,12.2,8.8,18.2,26.4,18.2c19.3,0,30.3-7.9,33.1-23.7l-21-0.2c-0.2,1.7-1.1,3.2-2.5,4.4
					c-1.4,1.3-3.2,1.9-5.2,1.9c-5.5,0-8.2-2.3-8.2-7c0-0.8,0.1-1.8,0.2-2.8L189.1,211.2z"/>
				<path d="M141.3,196.7h24.8l3.2-17.9h-31.6l4-20.2h-21.5l-16.4,90.8c-0.8,4.8-1.3,9.7-1.3,14.5s1.1,9,3.3,12.4
					c3.5,5.3,10.7,8,21.5,8s19.3-4,25.6-11.8c6.3-7.9,9.4-18,9.4-30.4c0-10-2-18.9-6-26.6C152.3,207.7,147.3,201.5,141.3,196.7z
					 M137.3,259.8c-1.9,4.2-4.1,6.3-6.7,6.3c-4,0-6-3-6-9.1c0-2.2,0.2-4.8,0.8-7.7l7.6-43.5c1.9,4,3.6,9.5,5,16.5
					c1.4,7,2.1,14,2.1,20.8C140.1,250,139.1,255.6,137.3,259.8z"/>
				<path d="M403,176.9c-10,0-18,2.2-24,6.5c-6,4.3-9.8,10.6-11.2,18.7l-2.7,15.7c-0.3,1.7-0.4,3.3-0.5,4.8
					c-1.3,0.6-2.7,0.9-4.3,0.9c-2.5,0-3.8-1.1-3.8-3.4c0-0.4,0-0.9,0.1-1.4l3.4-19.5c0.4-2.6,0.6-5.5,0.6-8.5s-0.7-5.7-2.2-8.1
					c-2.3-3.7-7.2-5.6-14.8-5.6s-13.9,3.1-18.9,9.2l1.4-7.5h-20l-7.7,43.5c-1.5,0.8-3.2,1.2-5.1,1.2c-2.5,0-3.8-1.1-3.8-3.4
					c0-0.4,0-0.9,0.1-1.4l3.4-19.5c0.4-2.6,0.6-5.5,0.6-8.5s-0.7-5.7-2.2-8.1c-2.3-3.7-7.2-5.6-14.8-5.6s-13.9,3.1-18.9,9.2l1.4-7.5
					h-20l-10.8,61h21.5l7.1-40.4c2.3-2.6,5.2-3.9,8.7-3.9c3.5,0,5.3,1.8,5.3,5.5c0,1.1-0.1,2.4-0.4,3.9l-3,16.9
					c-0.3,1.9-0.5,3.8-0.5,5.5c0,9.6,5.7,14.4,17.2,14.4c4.1,0,7.9-1.1,11.3-3.3l-0.3,1.5H317l7.1-40.4c2.3-2.6,5.2-3.9,8.7-3.9
					c3.5,0,5.3,1.8,5.3,5.5c0,1.1-0.1,2.4-0.4,3.9l-3,16.9c-0.3,1.9-0.5,3.8-0.5,5.5c0,9.6,5.7,14.4,17.2,14.4
					c10.3,0,17.4-4.4,18.9-5.3c4.4,3.5,11.3,5.3,20.8,5.3c19.3,0,30.3-7.9,33.1-23.7l-21-0.2c-0.2,1.7-1.1,3.2-2.5,4.4
					c-1.4,1.3-3.2,1.9-5.2,1.9c-5.5,0-8.2-2.3-8.2-7c0-0.8,0.1-1.8,0.2-2.8l0.5-2.9h38.7l1.5-9c0.3-2.2,0.5-4.2,0.5-6.1
					C428.5,183.3,420,176.9,403,176.9z M406.2,203.5h-17.1c0.8-3.2,2.1-5.6,4.1-7.2s4.2-2.4,6.6-2.4c2.4,0,4.2,0.6,5.3,1.9
					c1.1,1.3,1.6,2.5,1.6,3.7C406.7,200.7,406.5,202.1,406.2,203.5z"/>
				<path d="M491.1,199.7c1.7-2.4,2.5-4.9,2.5-7.7c0-10-8.7-15.1-26-15.1c-11.2,0-19.8,2.1-25.8,6.2c-6,4.1-8.9,10.1-8.9,17.7
					c0,4,1.2,7.2,3.5,9.6s5.3,4.1,8.7,4.8c3.4,0.8,6.8,1.3,10.3,1.6c3.4,0.3,6.3,0.7,8.7,1.2c2.4,0.5,3.5,1.3,3.5,2.5
					c0,1.8-0.7,3-2,3.6c-1.4,0.6-3.5,0.9-6.6,0.9c-3,0-5.3-0.4-6.9-1.3s-2.3-1.9-2.1-3.1l-21.2,0.2c-0.2,1.4-0.4,2.8-0.4,4.2
					c0,4.7,1.7,8.4,5.1,11.2c4.3,3.5,11.8,5.2,22.6,5.2c10.7,0,18.9-1.8,24.5-5.5c5.6-3.6,8.4-9,8.4-16c0-4-1.2-7.1-3.5-9.5
					c-2.4-2.4-5.2-4-8.6-4.8c-3.4-0.8-6.8-1.4-10.1-1.8c-3.4-0.4-6.3-1-8.6-1.6c-2.4-0.7-3.5-1.8-3.5-3.3c0-3.9,3.2-5.8,9.5-5.8
					c2.1,0,3.8,0.4,5.2,1.1c1.4,0.7,2,1.7,2,2.9s-0.3,2-1,2.5H491.1z"/>
				<path d="M555.6,199.7c1.7-2.4,2.5-4.9,2.5-7.7c0-10-8.7-15.1-26-15.1c-11.2,0-19.8,2.1-25.8,6.2c-6,4.1-8.9,10.1-8.9,17.7
					c0,4,1.2,7.2,3.5,9.6c2.4,2.5,5.3,4.1,8.7,4.8c3.4,0.8,6.8,1.3,10.3,1.6c3.4,0.3,6.3,0.7,8.7,1.2c2.4,0.5,3.5,1.3,3.5,2.5
					c0,1.8-0.7,3-2,3.6c-1.4,0.6-3.5,0.9-6.6,0.9c-3,0-5.3-0.4-6.9-1.3c-1.6-0.9-2.3-1.9-2.1-3.1l-21.2,0.2
					c-0.2,1.4-0.4,2.8-0.4,4.2c0,4.7,1.7,8.4,5.1,11.2c4.3,3.5,11.8,5.2,22.6,5.2c10.7,0,18.9-1.8,24.5-5.5c5.6-3.6,8.4-9,8.4-16
					c0-4-1.2-7.1-3.5-9.5c-2.4-2.4-5.2-4-8.6-4.8c-3.4-0.8-6.8-1.4-10.1-1.8c-3.4-0.4-6.3-1-8.6-1.6c-2.4-0.7-3.5-1.8-3.5-3.3
					c0-3.9,3.2-5.8,9.5-5.8c2.1,0,3.8,0.4,5.2,1.1c1.4,0.7,2,1.7,2,2.9s-0.3,2-1,2.5H555.6z"/>
				<path d="M580.9,211.2h38.7l1.5-9c0.3-2.2,0.5-4.2,0.5-6.1c0-12.8-8.5-19.3-25.5-19.3c-10,0-18,2.2-24,6.5
					c-6,4.3-9.8,10.6-11.2,18.7l-2.7,15.7c-0.3,1.9-0.5,3.8-0.5,5.5c0,12.2,8.8,18.2,26.4,18.2c19.3,0,30.3-7.9,33.1-23.7l-21-0.2
					c-0.2,1.7-1.1,3.2-2.5,4.4c-1.4,1.3-3.2,1.9-5.2,1.9c-5.5,0-8.2-2.3-8.2-7c0-0.8,0.1-1.8,0.2-2.8L580.9,211.2z M586.2,196.3
					c2-1.6,4.2-2.4,6.6-2.4c2.4,0,4.2,0.6,5.3,1.9c1.1,1.3,1.6,2.5,1.6,3.7c0,1.2-0.2,2.6-0.5,4h-17.1
					C582.9,200.3,584.3,197.9,586.2,196.3z"/>
				<path d="M669.3,178.8l-7.1,40.4c-2.5,2.6-5.5,3.9-9.2,3.9c-4.6,0-6.8-2-6.8-6.1c0-1.5,0.1-3,0.4-4.6l6-33.7h-21.5l-7.1,39.9
					c-0.4,2.6-0.6,5.2-0.6,7.7c0,2.5,0.4,4.8,1.1,6.8c1.3,3.6,4.3,6,9.1,7.2c-8.9,5.6-13.3,12-13.3,19.1c0,5.1,1.9,9.2,5.6,12.3
					c3.8,3.1,9.9,4.7,18.4,4.7c8.5,0,16.1-3.1,22.8-9.4c6.6-6.3,10.9-14.7,12.7-25.5l11.2-63L669.3,178.8L669.3,178.8z M657.9,243.6
					c-1.7,10-5.3,15-10.8,15c-1.8,0-3.2-0.5-4.1-1.6c-1-1.1-1.5-2.4-1.5-4.1c0-5.6,5.9-11.1,17.6-16.6L657.9,243.6z"/>
			</g>
			<g>
				<path class="st1" d="M183.6,129.7c0,2.5,0.4,4.8,1.1,6.8c1.3,3.6,4.3,6,9.1,7.2c-8.9,5.6-13.3,12-13.3,19.1
					c0,5.1,1.9,9.2,5.6,12.3c3.8,3.1,9.9,4.7,18.4,4.7c8.5,0,16.1-3.1,22.8-9.4c6.6-6.3,10.9-14.7,12.7-25.5l11.2-63h-21.5
					l-7.1,40.4c-2.5,2.6-5.5,3.9-9.2,3.9c-4.6,0-6.8-2-6.8-6.1c0-1.5,0.1-3,0.4-4.6l6-33.7h-21.5l-7.1,39.9
					C183.8,124.6,183.6,127.2,183.6,129.7z M219.6,139.5l-1.3,7.4c-1.7,10-5.3,15-10.8,15c-1.8,0-3.2-0.5-4.1-1.6
					c-1-1.1-1.5-2.4-1.5-4.1C202,150.5,207.9,144.9,219.6,139.5z"/>
				<path d="M151.8,103c2.1-2.9,4.6-4.3,7.5-4.3c1.7,0,3,0.5,4,1.5c1,1,1.5,2.2,1.5,3.7c0,2.9-1.1,5.3-3.2,7.2h19.1l1.4-1.8
					c0.9-1.3,1.9-3.3,2.9-6c1-2.7,1.5-5.5,1.5-8.4c0-4.6-1.4-8.2-4.1-10.8c-2.7-2.6-6.9-3.9-12.4-3.9c-6.8,0-12.7,3.4-17.5,10.3
					L154,82h-20l-10.8,61h21.5L151.8,103z"/>
				<path d="M183.6,129.7c0,2.5,0.4,4.8,1.1,6.8c1.3,3.6,4.3,6,9.1,7.2c-8.9,5.6-13.3,12-13.3,19.1c0,5.1,1.9,9.2,5.6,12.3
					c3.8,3.1,9.9,4.7,18.4,4.7c8.5,0,16.1-3.1,22.8-9.4c6.6-6.3,10.9-14.7,12.7-25.5l11.2-63h-21.5l-7.1,40.4
					c-2.5,2.6-5.5,3.9-9.2,3.9c-4.6,0-6.8-2-6.8-6.1c0-1.5,0.1-3,0.4-4.6l6-33.7h-21.5l-7.1,39.9
					C183.8,124.6,183.6,127.2,183.6,129.7z M219.6,139.5l-1.3,7.4c-1.7,10-5.3,15-10.8,15c-1.8,0-3.2-0.5-4.1-1.6
					c-1-1.1-1.5-2.4-1.5-4.1C202,150.5,207.9,144.9,219.6,139.5z"/>
				<path d="M249.1,126.9c0,11.9,6.9,17.9,20.8,17.9c8.2,0,14.4-3.4,18.6-10.1c1,6.8,6.2,10.1,15.5,10.1c4.3,0,8.3-1.2,11.9-3.6
					l-0.3,1.8h21.5l7.1-40.4c2.3-2.6,5.2-3.9,8.7-3.9c3.5,0,5.3,1.8,5.3,5.5c0,1.1-0.1,2.4-0.4,3.9l-3,16.9
					c-0.3,1.9-0.5,3.8-0.5,5.5c0,9.6,5.7,14.4,17.2,14.4c5.1,0,9.6-1.6,13.6-4.9l0.6-14.3c-1.5,0.8-3.3,1.3-5.2,1.3
					c-2.5,0-3.8-1.1-3.8-3.4c0-0.4,0-0.9,0.1-1.4l3.4-19.5c0.4-2.6,0.6-5.5,0.6-8.5s-0.7-5.7-2.2-8.1c-2.3-3.7-7.2-5.6-14.8-5.6
					s-13.9,3.1-18.9,9.2l1.4-7.5h-20l-8.1,45.7l0.1-2.3c-1.5,0.8-3.4,1.3-5.6,1.3s-3.4-1.1-3.4-3.3c0-0.5,0-1,0.1-1.5l7.1-39.9
					h-19.3l-0.6,3.8c-2.8-3.6-8.1-5.5-15.9-5.5s-14.2,2.3-19,6.8c-4.9,4.5-8,10.6-9.3,18.2l-2.7,14.8
					C249.3,122.6,249.1,124.9,249.1,126.9z M271.8,117.4l1.6-9.5c1.1-6.3,4.9-9.4,11.4-9.4c3.5,0,5.7,1.1,6.6,3.2l-3.8,21.3
					c-2.2,2.4-4.8,3.5-7.8,3.5c-3,0-5.1-0.7-6.4-2c-1.3-1.3-1.9-2.6-1.9-4C271.6,119.2,271.6,118.2,271.8,117.4z"/>
			</g>
		</g>
	</g>
</g>
</svg>
