<?xml version="1.0" encoding="utf-8"?>
<!-- Generator: Adobe Illustrator 25.2.1, SVG Export Plug-In . SVG Version: 6.00 Build 0)  -->
<svg version="1.1" id="Layer_1" xmlns="http://www.w3.org/2000/svg" xmlns:xlink="http://www.w3.org/1999/xlink" x="0px" y="0px"
	 viewBox="0 0 800 368" style="enable-background:new 0 0 800 368;" xml:space="preserve">
<style type="text/css">
	.st0{stroke:#FFFFFF;stroke-width:20.8046;stroke-miterlimit:10;}
	.st1{fill:url(#SVGID_1_);}
	.st2{fill:#FFFFFF;}
</style>
<g>
	<g>
		<path class="st0" d="M754.2,277.6c4.2,4.1,6.7,6.8,9.4,9.2c7.9,6.8,7.4,16.3,8.3,25.3c0.6,6.5-2.8,10.2-9.6,10.2
			c-34.1,0.2-68.2,0.3-102.3,0.5c-25.8,0.2-51.7,0.5-77.5,0.6c-5.9,0-11.9,0.1-17.7-0.7c-3.3-0.4-6.9-1.8-9.3-4
			c-5.6-5.2-10.8-5.7-18-2.7c-6.3,2.6-13.2,4.8-19.9,5.1c-59.1,3.2-118.2-1.5-177.3-2.3c-26-0.4-52.1-0.1-78.1-0.1
			c-4.8,0-9.1,0.8-10.8,6.4c-2.2,7-8,7.7-14.3,7.5c-19.5-0.6-39-1.5-58.4-1.7c-28-0.3-56,0-84-0.1c-11.6-0.1-23.2-0.7-34.8-0.8
			c-3,0-6,1-9,1c-2.5-0.1-6.3-0.2-7.3-1.7c-1.5-2.3-2.6-7-1.3-8.8c7.5-10.8,13.6-22.9,25.8-29.6c4.3-2.3,5.1-5.4,1.2-7.8
			c-4.2-2.6-9.3-4-14.2-5.1c-3.8-0.8-7.9,0.1-11.7-0.5c-4.8-0.7-10.3-0.6-11.9-7.2c-1.6-6.9-1.1-8.4,7-15.3c-4.1-3.3-7.8-6.9-12-9.4
			c-8.4-5-13.7-12.5-13.7-21.5c0-20.7,1.3-41.4,2.9-62c0.4-5,3.8-9.9,5.8-14.8c1-2.6,2-5.2,3-7.8c1.5-3.8,2.4-8,4.7-11.4
			c3.6-5.3,3.4-10.4,1.4-16.1c-1.6-4.5-2.5-9.1-3.7-13.7c-0.4-1.7-0.2-3.9-1.3-5c-6-6.1-4-13.4-3.5-20.4c0.2-2.3,0.8-5.3,2.4-6.6
			c7.4-5.6,13.5-12.9,24.4-12.8c54.3,0.8-24.7-1.3,29.5-0.9c31.1,0.2-0.7,0.2,30.4,0.3c6.6,0,10.7-3.3,13.6-8.5
			c2.3-4.2,5.3-5.2,10.1-5.1c25.8,0.7,310.4-0.3,336.2,0.1c33.5,0.6,4.4,5.2,37.9,5.4c48.6,0.3,97.2,0,145.8,0.1
			c32.2,0.1,64.4,0.6,96.5,0.7c6.3,0,12.6-0.9,18.9-1.6c11.3-1.3,18,4.1,17.8,14.4c-0.1,7.1-5.6,10-10.8,12.7
			c-8.4,4.4-9.2,7.4-4.2,15c1.2,1.8,1.5,5,0.7,7c-3.8,9.8-4.8,19.7-3.8,30.1c0.5,5.7-0.5,11.6-1.1,17.4c-0.7,6.3-2,12.5-2.6,18.7
			c-0.6,6-2.4,10.9-6.2,16c-8.5,11.5-12.2,24.8-11.1,39.5c0.4,5.3-1.6,11-3.7,16.1c-2.3,5.6-0.9,11.6,5.1,12.7
			c8,1.5,10,6.3,10.3,13.4c0.2,4,2.1,7.8,2.7,11.8c0.3,1.7-0.4,4-1.5,5.3C758.5,275.8,756.4,276.4,754.2,277.6z"/>
	</g>
	<g>
		<path d="M754.2,277.6c4.2,4.1,6.7,6.8,9.4,9.2c7.9,6.8,7.4,16.3,8.3,25.3c0.6,6.5-2.8,10.2-9.6,10.2c-34.1,0.2-68.2,0.3-102.3,0.5
			c-25.8,0.2-51.7,0.5-77.5,0.6c-5.9,0-11.9,0.1-17.7-0.7c-3.3-0.4-6.9-1.8-9.3-4c-5.6-5.2-10.8-5.7-18-2.7
			c-6.3,2.6-13.2,4.8-19.9,5.1c-59.1,3.2-118.2-1.5-177.3-2.3c-26-0.4-52.1-0.1-78.1-0.1c-4.8,0-9.1,0.8-10.8,6.4
			c-2.2,7-8,7.7-14.3,7.5c-19.5-0.6-39-1.5-58.4-1.7c-28-0.3-56,0-84-0.1c-11.6-0.1-23.2-0.7-34.8-0.8c-3,0-6,1-9,1
			c-2.5-0.1-6.3-0.2-7.3-1.7c-1.5-2.3-2.6-7-1.3-8.8c7.5-10.8,13.6-22.9,25.8-29.6c4.3-2.3,5.1-5.4,1.2-7.8c-4.2-2.6-9.3-4-14.2-5.1
			c-3.8-0.8-7.9,0.1-11.7-0.5c-4.8-0.7-10.3-0.6-11.9-7.2c-1.6-6.9-1.1-8.4,7-15.3c-4.1-3.3-7.8-6.9-12-9.4
			c-8.4-5-13.7-12.5-13.7-21.5c0-20.7,1.3-41.4,2.9-62c0.4-5,3.8-9.9,5.8-14.8c1-2.6,2-5.2,3-7.8c1.5-3.8,2.4-8,4.7-11.4
			c3.6-5.3,3.4-10.4,1.4-16.1c-1.6-4.5-2.5-9.1-3.7-13.7c-0.4-1.7-0.2-3.9-1.3-5c-6-6.1-4-13.4-3.5-20.4c0.2-2.3,0.8-5.3,2.4-6.6
			c7.4-5.6,13.5-12.9,24.4-12.8c54.3,0.8-24.7-1.3,29.5-0.9c31.1,0.2-0.7,0.2,30.4,0.3c6.6,0,10.7-3.3,13.6-8.5
			c2.3-4.2,5.3-5.2,10.1-5.1c25.8,0.7,310.4-0.3,336.2,0.1c33.5,0.6,4.4,5.2,37.9,5.4c48.6,0.3,97.2,0,145.8,0.1
			c32.2,0.1,64.4,0.6,96.5,0.7c6.3,0,12.6-0.9,18.9-1.6c11.3-1.3,18,4.1,17.8,14.4c-0.1,7.1-5.6,10-10.8,12.7
			c-8.4,4.4-9.2,7.4-4.2,15c1.2,1.8,1.5,5,0.7,7c-3.8,9.8-4.8,19.7-3.8,30.1c0.5,5.7-0.5,11.6-1.1,17.4c-0.7,6.3-2,12.5-2.6,18.7
			c-0.6,6-2.4,10.9-6.2,16c-8.5,11.5-12.2,24.8-11.1,39.5c0.4,5.3-1.6,11-3.7,16.1c-2.3,5.6-0.9,11.6,5.1,12.7
			c8,1.5,10,6.3,10.3,13.4c0.2,4,2.1,7.8,2.7,11.8c0.3,1.7-0.4,4-1.5,5.3C758.5,275.8,756.4,276.4,754.2,277.6z"/>
	</g>
	<g>
		<linearGradient id="SVGID_1_" gradientUnits="userSpaceOnUse" x1="153.0906" y1="192.2901" x2="651.803" y2="192.2901">
			<stop  offset="2.663895e-07" style="stop-color:#00FFC3"/>
			<stop  offset="0.1441" style="stop-color:#00F6C7"/>
			<stop  offset="0.3826" style="stop-color:#00DDD3"/>
			<stop  offset="0.6857" style="stop-color:#00B4E7"/>
			<stop  offset="1" style="stop-color:#0082FE"/>
		</linearGradient>
		<path class="st1" d="M300.3,152.8h-18.3l9.1-51.7h17l-1.3,7.2c4.1-5.8,9-8.7,14.8-8.7c4.7,0,8.1,1.1,10.5,3.3
			c2.3,2.2,4.8-1.1,4.8,2.8c0,2.4-1.7,11.1-2.5,13.4c-0.8,2.3-1.6,4-2.4,5l-1.2,1.5h-16.2l1.3-5.9l0.3-1.5c0-1.3,1.9-0.3-0.1-1.9
			c-0.9-0.7-2-1.2-3.4-1.2c-2.4,0-4.5,1.2-6.3,3.7L300.3,152.8z M389.4,133.5l2.3-12.6c1.1-6.4,3.8-11.6,7.9-15.4
			c4.1-3.8,9.5-5.7,16.1-5.7c6.6,0,11.1,1.5,13.5,4.6l0.5-3.2H446l-6,33.8c-0.1,0.4-0.1,0.9-0.1,1.3c0,1.9,0.9,2.8,2.8,2.8
			c1.9,0,3.5-0.4,4.8-1.1l-0.1,1.9l6.9-38.8h17l-1.2,6.3c4.2-5.2,9.6-7.8,16-7.8c6.4,0,10.6,1.6,12.6,4.7c1.2,2,1.8,4.3,1.8,6.9
			s-0.2,5-0.5,7.2l-2.9,16.5c-0.1,0.4-0.1,0.8-0.1,1.2c0,1.9,1.1,2.9,3.2,2.9c1.6,0,3.1-0.4,4.4-1.1l-1.3,3.7l2.4,0.8l-1.6,7.6
			c-3.4,2.8-7.2,4.2-11.5,4.2c-9.7,0-14.6-4.1-14.6-12.2c0-1.4,0.1-3,0.4-4.6l2.6-14.3c0.2-1.3,0.3-2.4,0.3-3.3
			c0-3.1-1.5-4.6-4.5-4.6c-3,0-5.4,1.1-7.4,3.3l-6,34.3h-18.3l0.3-1.6c-3,2-6.4,3.1-10,3.1c-7.9,0-12.2-2.9-13.1-8.6
			c-3.6,5.7-8.8,8.6-15.8,8.6c-11.7,0-17.6-5-17.6-15.1C388.9,137.4,389.1,135.5,389.4,133.5z M407.9,133.8c0,1.1,0.5,2.3,1.6,3.4
			c1.1,1.1,2.9,1.7,5.4,1.7c2.5,0,4.7-1,6.6-3l3.2-18c-0.8-1.8-2.7-2.7-5.6-2.7c-5.5,0-8.7,2.7-9.7,7.9l-1.4,8.1
			C408,131.7,407.9,132.6,407.9,133.8z M333.9,135l6-33.8h18.3l-5,28.6c-0.2,1.3-0.3,2.6-0.3,3.9c0,3.4,1.9,5.2,5.8,5.2
			c3.2,0,5.8-1.1,7.8-3.3l6-34.3h18.3l-9.5,53.4c-1.6,9.1-5.2,16.3-10.8,21.6c-5.6,5.3-12.1,8-19.3,8c-7.2,0-12.4-1.3-15.6-4
			c-3.2-2.7-4.8-6.1-4.8-10.4c0-6.1,3.8-11.5,11.3-16.2c-4.1-1-6.7-3-7.7-6.1c-0.6-1.7-1-3.7-1-5.8
			C333.3,139.4,333.5,137.2,333.9,135z M348.9,163.9c0,1.4,0.4,2.6,1.2,3.5c0.8,0.9,2,1.3,3.5,1.3c4.7,0,7.7-4.2,9.1-12.7l1.1-6.2
			C353.9,154.4,348.9,159.1,348.9,163.9z M226,225.6c-0.1,0.9-0.2,1.6-0.2,2.4c0,3.9,2.3,5.9,7,5.9c1.7,0,3.2-0.5,4.4-1.6
			c1.2-1.1,20.9-9.7,21.2-11.1l-1.2,7.6c-2.4,13.4-11.7,20.1-28,20.1c-14.9,0-22.3-5.2-22.3-15.5c0-1.4,0.1-3,0.4-4.6l2.3-13.3
			c1.2-6.9,4.4-12.2,9.5-15.8c5.1-3.7,11.9-5.5,20.4-5.5c14.4,0,21.6,5.4,21.6,16.3c0,1.6-0.1,3.3-0.4,5.2l-1.3,7.6h-32.8L226,225.6
			z M227.7,214.2l15.5,0.8c0.3-1.2-0.8-0.8-0.8-1.8c0-1-0.5-2.1-1.4-3.2c-0.9-1.1-2.4-1.6-4.5-1.6s-3.9,0.7-5.6,2
			C229.4,211.8,228.4,211.4,227.7,214.2z M558.1,225.6c-0.1,0.9-0.2,1.6-0.2,2.4c0,3.9,2.3,5.9,7,5.9c1.7,0,3.2-0.5,4.4-1.6
			c1.2-1.1,21.2-9.6,21.4-11l-1.4,7.4c-2.4,13.4-11.7,20.1-28,20.1c-14.9,0-22.3-5.2-22.3-15.5c0-1.4,0.1-3,0.4-4.6l2.3-13.3
			c1.2-6.9,4.4-12.2,9.5-15.8c5.1-3.7,11.9-5.5,20.4-5.5c14.4,0,21.6,5.4,21.6,16.3c0,1.6-0.1,3.3-0.4,5.2l-1.3,7.6h-32.8
			L558.1,225.6z M559.2,214.8h14.5c0.3-1.2,0.8-0.7,0.8-1.7c0-1-0.5-2.1-1.4-3.2c-0.9-1.1-2.4-1.6-4.5-1.6s-3.9,0.7-5.6,2
			C561.4,211.8,559.9,212.1,559.2,214.8z M537.2,213.3c1.4-2,3.9-11.9,3.9-14.3c0-8.5-9.1-5.1-23.8-5.1c-9.5,0-16.8,1.8-21.9,5.3
			c-5,3.5-7.6,8.5-7.6,15c0,3.4,1,6.1,3,8.2c2,2.1,4.5,3.4,7.4,4.1c2.9,0.6,5.8,1.1,8.7,1.4c2.9,0.3,5.4,0.6,7.4,1
			c2,0.4,3,1.1,3,2.1c0,1.5-0.6,2.5-1.7,3.1c-1.1,0.5-3,0.8-5.6,0.8c-2.6,0-4.5-0.4-5.9-1.1c-1.3-0.8-1.9-1.6-1.8-2.6l-11.3,0.1
			l-5.4-5.8l-1.3,5.9c-0.2,1.2-0.3,2.4-0.3,3.5c0,4,1.4,7.2,4.3,9.5c3.7,2.9,10,4.4,19.1,4.4c9.1,0,16-1.5,20.8-4.6
			c4.8-3.1,7.1-7.6,7.1-13.5c0-3.4-1-6.1-3-8.1c-2-2-4.4-3.3-7.3-4c-2.9-0.7-5.7-1.2-8.6-1.6c-2.9-0.4-5.3-0.8-7.3-1.4
			c-2-0.6-3-1.5-3-2.8c0-3.3,2.7-4.9,8.1-4.9c1.8,0,3.3,0.3,4.4,0.9c1.1,0.6,1.7,1.4,1.7,2.4c0,1-0.3,1.7-0.9,2.1H537.2z
			 M651.8,195.6l-9.5,53.4c-1.6,9.1-5.2,16.3-10.8,21.6c-5.6,5.3-12.1,8-19.3,8c-7.2,0-12.4-1.3-15.6-4c-3.2-2.7-4.8-6.1-4.8-10.4
			c0-6.1,3.8-11.5,11.3-16.2c-4.1-1-6.7-3-7.7-6.1c-0.6-1.7-1-3.7-1-5.8c0-2.1,0.2-4.3,0.5-6.6l6-33.8h18.3l-5,28.6
			c-0.2,1.3-0.3,2.6-0.3,3.9c0,3.4,1.9,5.2,5.8,5.2c3.2,0,5.8-1.1,7.8-3.3l6-34.3H651.8z M624.9,244.2c-10,4.7-14.9,9.3-14.9,14.1
			c0,1.4,0.4,2.6,1.2,3.5c0.8,0.9,2,1.3,3.5,1.3c4.7,0,7.7-4.2,9.1-12.7L624.9,244.2z M198.7,226.6c3.4,6.5,5.1,14,5.1,22.6
			c0,10.5-2.7,19-8,25.7c-5.3,6.7-12.6,10-21.7,10c-9.1,0-15.2-2.3-18.2-6.8c-1.9-2.9-2.8-6.4-2.8-10.5c0-4.1,0.4-8.2,1.1-12.3
			l13.8-77.8h18.3l-3.2,17.9h26.8l-2.7,15.1H186C191.1,214.8,195.3,220.1,198.7,226.6z M184.9,250.1c0-5.8-0.6-11.7-1.8-17.7
			c-1.2-5.9-2.6-10.6-4.2-14l-6.4,36.9c-0.4,2.5-0.6,4.7-0.6,6.6c0,5.2,1.7,7.7,5,7.7c2.2,0,4.1-1.8,5.7-5.4
			C184.1,260.6,184.9,255.9,184.9,250.1z M482.5,213.3c1.4-2,3.7-10.3,3.7-12.6c0-8.5-8.9-6.7-23.6-6.7c-9.5,0-16.8,1.8-21.9,5.3
			c-5,3.5-7.6,8.5-7.6,15c0,3.4,1,6.1,3,8.2c2,2.1,4.5,3.4,7.4,4.1c2.9,0.6,5.8,1.1,8.7,1.4c2.9,0.3,5.4,0.6,7.4,1
			c2,0.4,3,1.1,3,2.1c0,1.5-0.6,2.5-1.7,3.1c-1.1,0.5-3,0.8-5.6,0.8c-2.6,0-4.5-0.4-5.9-1.1c-1.3-0.8-1.9-1.6-1.8-2.6l-12.7,0.2
			l0.1-0.3l-4.1-5.5l-1.3,5.9c-0.2,1.2-0.3,2.4-0.3,3.5c0,4,1.4,7.2,4.3,9.5c3.7,2.9,10,4.4,19.1,4.4c9.1,0,16-1.5,20.8-4.6
			c4.8-3.1,7.1-7.6,7.1-13.5c0-3.4-1-6.1-3-8.1c-2-2-4.4-3.3-7.3-4c-2.9-0.7-5.7-1.2-8.6-1.6c-2.9-0.4-5.3-0.8-7.3-1.4
			c-2-0.6-3-1.5-3-2.8c0-3.3,2.7-4.9,8.1-4.9c1.8,0,3.3,0.3,4.4,0.9c1.1,0.6,1.7,1.4,1.7,2.4c0,1-0.3,1.7-0.9,2.1H482.5z
			 M429.4,210.3c0,1.6-0.1,3.3-0.4,5.2l-1.3,7.6h-32.8l-0.4,2.5c-0.1,0.9-0.2,1.6-0.2,2.4c0,3.9,2.3,5.9,7,5.9
			c1.7,0,3.2-0.5,4.4-1.6c1.2-1.1,1.9-2.3,2.1-3.8l17.8,0.2c-2.4,13.4-11.7,20.1-28,20.1c-8,0-13.9-1.5-17.6-4.5
			c-1.7-2.3-4.5,0.3-4.5,0.3c-3.4,2.8-7.2,4.2-11.5,4.2c-9.7,0-14.6-4.1-14.6-12.2c0-1.4,0.1-3,0.4-4.6l2.6-14.3
			c0.2-1.3,0.3-2.4,0.3-3.3c0-3.1-1.5-4.6-4.5-4.6c-3,0-5.4,1.1-7.4,3.3l-6,34.3h-18.3l0.2-1.3c-2.9,1.9-6.1,2.8-9.6,2.8
			c-9.7,0-14.6-4.1-14.6-12.2c0-1.4,0.1-3,0.4-4.6l2.6-14.3c0.2-1.3,0.3-2.4,0.3-3.3c0-3.1-1.5-4.6-4.5-4.6c-3,0-5.4,1.1-7.4,3.3
			l-6,34.3h-18.3l9.1-51.7h17l-1.2,6.3c4.2-5.2,9.6-7.8,16-7.8c6.4,0,10.6,1.6,12.6,4.7c1.2,2,1.8,4.3,1.8,6.9c0,2.6-0.2,5-0.5,7.2
			l-2.9,16.5c-0.1,0.4-0.1,0.8-0.1,1.2c0,1.9,1.1,2.9,3.2,2.9c1.6,0,3.1-0.3,4.3-1l6.5-36.9h17l-1.2,6.3c4.2-5.2,9.6-7.8,16-7.8
			c6.4,0,10.6,1.6,12.6,4.7c1.2,2,1.8,4.3,1.8,6.9c0,2.6-0.2,5-0.5,7.2l-2.9,16.5c-0.1,0.4-0.1,0.8-0.1,1.2c0,1.9,1.1,2.9,3.2,2.9
			c1.3,0,2.6-0.3,3.7-0.7c0-1.3,0.2-2.6,0.4-4.1l2.3-13.3c1.2-6.9,4.4-12.2,9.5-15.8c5.1-3.7,11.9-5.5,20.4-5.5
			C422.2,194,429.4,199.4,429.4,210.3z M410.9,213.1c0-1-0.5-2.1-1.4-3.2c-0.9-1.1-2.4-1.6-4.5-1.6c-2,0-3.9,0.7-5.6,2
			c-1.7,1.4-2.8,1.7-3.5,4.4h14.5C410.8,213.6,410.9,214.2,410.9,213.1z"/>
		<g>
			<g>
				<path class="st2" d="M307.8,111.3c1.8-2.4,3.9-3.7,6.3-3.7c1.4,0,2.6,0.4,3.4,1.2c0.8,0.8,1.2,1.9,1.2,3.2
					c0,2.4-0.9,4.5-2.7,6.1h16.2l1.2-1.5c0.8-1.1,1.6-2.8,2.4-5c0.8-2.3,1.2-4.7,1.2-7.1c0-3.9-1.2-6.9-3.5-9.1
					c-2.3-2.2-5.8-3.3-10.5-3.3c-5.8,0-10.7,2.9-14.8,8.7l1.3-7.2h-17l-9.1,51.7h18.3L307.8,111.3z"/>
				<path class="st2" d="M334.8,134c0,2.1,0.3,4.1,1,5.8c1.1,3.1,3.7,5.1,7.7,6.1c-7.5,4.7-11.3,10.1-11.3,16.2
					c0,4.3,1.6,7.8,4.8,10.4c3.2,2.6,8.4,4,15.6,4c7.2,0,13.7-2.7,19.3-8c5.6-5.3,9.2-12.5,10.8-21.6l9.5-53.4h-18.3l-6,34.3
					c-2.1,2.2-4.7,3.3-7.8,3.3c-3.9,0-5.8-1.7-5.8-5.2c0-1.3,0.1-2.6,0.3-3.9l5-28.6h-18.3l-6,33.8C335,129.7,334.8,131.9,334.8,134
					z M365.3,142.3l-1.1,6.2c-1.4,8.5-4.5,12.7-9.1,12.7c-1.5,0-2.7-0.4-3.5-1.3c-0.8-0.9-1.2-2.1-1.2-3.5
					C350.4,151.6,355.4,146.9,365.3,142.3z"/>
				<path class="st2" d="M390.3,131.6c0,10.1,5.9,15.1,17.6,15.1c6.9,0,12.2-2.9,15.8-8.6c0.9,5.7,5.2,8.6,13.1,8.6
					c3.7,0,7-1,10-3.1l-0.3,1.6h18.3l6-34.3c1.9-2.2,4.4-3.3,7.4-3.3c3,0,4.5,1.5,4.5,4.6c0,0.9-0.1,2-0.3,3.3l-2.6,14.3
					c-0.3,1.6-0.4,3.2-0.4,4.6c0,8.2,4.9,12.2,14.6,12.2c4.3,0,8.1-1.4,11.5-4.2l0.5-12.1c-1.3,0.7-2.8,1.1-4.4,1.1
					c-2.1,0-3.2-1-3.2-2.9c0-0.4,0-0.8,0.1-1.2l2.9-16.5c0.4-2.2,0.5-4.6,0.5-7.2c0-2.6-0.6-4.9-1.8-6.9c-1.9-3.2-6.1-4.7-12.6-4.7
					c-6.4,0-11.8,2.6-16,7.8l1.2-6.3h-17l-6.9,38.8l0.1-1.9c-1.3,0.7-2.9,1.1-4.8,1.1c-1.9,0-2.8-0.9-2.8-2.8c0-0.4,0-0.9,0.1-1.3
					l6-33.8h-16.3l-0.5,3.2c-2.4-3.1-6.9-4.6-13.5-4.6c-6.6,0-12,1.9-16.1,5.7c-4.1,3.8-6.8,9-7.9,15.4l-2.3,12.6
					C390.5,128,390.3,129.9,390.3,131.6z M409.6,123.6l1.4-8.1c0.9-5.3,4.2-7.9,9.7-7.9c2.9,0,4.8,0.9,5.6,2.7l-3.2,18
					c-1.9,2-4.1,3-6.6,3c-2.5,0-4.4-0.6-5.4-1.7c-1.1-1.1-1.6-2.2-1.6-3.4C409.4,125.1,409.4,124.2,409.6,123.6z"/>
			</g>
			<g>
				<path class="st2" d="M187.4,203.2h21.1l2.7-15.1h-26.8l3.2-17.9h-18.3l-13.8,77.8c-0.7,4.1-1.1,8.2-1.1,12.3
					c0,4.1,0.9,7.6,2.8,10.5c3,4.5,9.1,6.8,18.2,6.8s16.4-3.3,21.7-10c5.3-6.7,8-15.3,8-25.7c0-8.5-1.7-16-5.1-22.6
					C196.8,212.6,192.5,207.3,187.4,203.2z M184,256.7c-1.6,3.6-3.5,5.4-5.7,5.4c-3.4,0-5-2.6-5-7.7c0-1.9,0.2-4,0.6-6.6l6.4-36.9
					c1.6,3.4,3.1,8,4.2,14c1.2,5.9,1.8,11.8,1.8,17.7C186.4,248.4,185.6,253.1,184,256.7z"/>
				<path class="st2" d="M227.9,215.6h32.8l1.3-7.6c0.3-1.9,0.4-3.6,0.4-5.2c0-10.9-7.2-16.3-21.6-16.3c-8.5,0-15.2,1.8-20.4,5.5
					c-5.1,3.7-8.3,9-9.5,15.8l-2.3,13.3c-0.3,1.6-0.4,3.2-0.4,4.6c0,10.3,7.4,15.5,22.3,15.5c16.3,0,25.7-6.7,28-20.1l-17.8-0.2
					c-0.2,1.4-0.9,2.7-2.1,3.8c-1.2,1.1-2.7,1.6-4.4,1.6c-4.7,0-7-2-7-5.9c0-0.7,0.1-1.5,0.2-2.4L227.9,215.6z M232.5,202.9
					c1.7-1.4,3.5-2,5.6-2s3.5,0.5,4.5,1.6c0.9,1.1,1.4,2.1,1.4,3.2c0,1-0.1,2.2-0.4,3.4H229C229.7,206.3,230.8,204.3,232.5,202.9z"
					/>
				<path class="st2" d="M409.3,186.5c-8.5,0-15.2,1.8-20.4,5.5c-5.1,3.7-8.3,9-9.5,15.8l-2.3,13.3c-0.3,1.5-0.4,2.8-0.4,4.1
					c-1.1,0.5-2.3,0.7-3.7,0.7c-2.1,0-3.2-1-3.2-2.9c0-0.4,0-0.8,0.1-1.2l2.9-16.5c0.4-2.2,0.5-4.6,0.5-7.2s-0.6-4.9-1.8-6.9
					c-1.9-3.2-6.1-4.7-12.6-4.7c-6.4,0-11.8,2.6-16,7.8l1.2-6.3h-17l-6.5,36.9c-1.3,0.7-2.7,1-4.3,1c-2.1,0-3.2-1-3.2-2.9
					c0-0.4,0-0.8,0.1-1.2l2.9-16.5c0.4-2.2,0.5-4.6,0.5-7.2s-0.6-4.9-1.8-6.9c-1.9-3.2-6.1-4.7-12.6-4.7c-6.4,0-11.8,2.6-16,7.8
					l1.2-6.3h-17l-9.1,51.7h18.3l6-34.3c1.9-2.2,4.4-3.3,7.4-3.3c3,0,4.5,1.5,4.5,4.6c0,0.9-0.1,2-0.3,3.3l-2.6,14.3
					c-0.3,1.6-0.4,3.2-0.4,4.6c0,8.2,4.9,12.2,14.6,12.2c3.5,0,6.7-0.9,9.6-2.8l-0.2,1.3h18.3l6-34.3c1.9-2.2,4.4-3.3,7.4-3.3
					c3,0,4.5,1.5,4.5,4.6c0,0.9-0.1,2-0.3,3.3l-2.6,14.3c-0.3,1.6-0.4,3.2-0.4,4.6c0,8.2,4.9,12.2,14.6,12.2c4.3,0,8.1-1.4,11.5-4.2
					c0,0,2.3-1.8,4.5-0.3c3.7,3,9.6,4.5,17.6,4.5c16.3,0,25.7-6.7,28-20.1l-17.8-0.2c-0.2,1.4-0.9,2.7-2.1,3.8
					c-1.2,1.1-2.7,1.6-4.4,1.6c-4.7,0-7-2-7-5.9c0-0.7,0.1-1.5,0.2-2.4l0.4-2.5h32.8l1.3-7.6c0.3-1.9,0.4-3.6,0.4-5.2
					C430.9,191.9,423.7,186.5,409.3,186.5z M412,209h-14.5c0.6-2.7,1.8-4.8,3.5-6.1c1.7-1.4,3.5-2,5.6-2c2,0,3.5,0.5,4.5,1.6
					c0.9,1.1,1.4,2.1,1.4,3.2C412.4,206.7,412.3,207.8,412,209z"/>
				<path class="st2" d="M484,205.8c1.4-2,2.1-4.2,2.1-6.6c0-8.5-7.3-12.8-22-12.8c-9.5,0-16.8,1.8-21.9,5.3c-5,3.5-7.6,8.5-7.6,15
					c0,3.4,1,6.1,3,8.2c2,2.1,4.5,3.4,7.4,4.1c2.9,0.6,5.8,1.1,8.7,1.4c2.9,0.3,5.4,0.6,7.4,1c2,0.4,3,1.1,3,2.1
					c0,1.5-0.6,2.5-1.7,3.1c-1.1,0.5-3,0.8-5.6,0.8c-2.6,0-4.5-0.4-5.9-1.1c-1.3-0.8-1.9-1.6-1.8-2.6l-17.9,0.2
					c-0.2,1.2-0.3,2.4-0.3,3.5c0,4,1.4,7.2,4.3,9.5c3.7,2.9,10,4.4,19.1,4.4c9.1,0,16-1.5,20.8-4.6c4.8-3.1,7.1-7.6,7.1-13.5
					c0-3.4-1-6.1-3-8.1c-2-2-4.4-3.3-7.3-4c-2.9-0.7-5.7-1.2-8.6-1.6c-2.9-0.4-5.3-0.8-7.3-1.4c-2-0.6-3-1.5-3-2.8
					c0-3.3,2.7-4.9,8.1-4.9c1.8,0,3.3,0.3,4.4,0.9c1.1,0.6,1.7,1.4,1.7,2.4c0,1-0.3,1.7-0.9,2.1H484z"/>
				<path class="st2" d="M538.6,205.8c1.4-2,2.1-4.2,2.1-6.6c0-8.5-7.3-12.8-22-12.8c-9.5,0-16.8,1.8-21.9,5.3
					c-5,3.5-7.6,8.5-7.6,15c0,3.4,1,6.1,3,8.2c2,2.1,4.5,3.4,7.4,4.1c2.9,0.6,5.8,1.1,8.7,1.4c2.9,0.3,5.4,0.6,7.4,1
					c2,0.4,3,1.1,3,2.1c0,1.5-0.6,2.5-1.7,3.1c-1.1,0.5-3,0.8-5.6,0.8c-2.6,0-4.5-0.4-5.9-1.1c-1.3-0.8-1.9-1.6-1.8-2.6l-17.9,0.2
					c-0.2,1.2-0.3,2.4-0.3,3.5c0,4,1.4,7.2,4.3,9.5c3.7,2.9,10,4.4,19.1,4.4c9.1,0,16-1.5,20.8-4.6c4.8-3.1,7.1-7.6,7.1-13.5
					c0-3.4-1-6.1-3-8.1c-2-2-4.4-3.3-7.3-4c-2.9-0.7-5.7-1.2-8.6-1.6c-2.9-0.4-5.3-0.8-7.3-1.4c-2-0.6-3-1.5-3-2.8
					c0-3.3,2.7-4.9,8.1-4.9c1.8,0,3.3,0.3,4.4,0.9c1.1,0.6,1.7,1.4,1.7,2.4c0,1-0.3,1.7-0.9,2.1H538.6z"/>
				<path class="st2" d="M560,215.6h32.8l1.3-7.6c0.3-1.9,0.4-3.6,0.4-5.2c0-10.9-7.2-16.3-21.6-16.3c-8.5,0-15.2,1.8-20.4,5.5
					c-5.1,3.7-8.3,9-9.5,15.8l-2.3,13.3c-0.3,1.6-0.4,3.2-0.4,4.6c0,10.3,7.4,15.5,22.3,15.5c16.3,0,25.7-6.7,28-20.1l-17.8-0.2
					c-0.2,1.4-0.9,2.7-2.1,3.8c-1.2,1.1-2.7,1.6-4.4,1.6c-4.7,0-7-2-7-5.9c0-0.7,0.1-1.5,0.2-2.4L560,215.6z M564.6,202.9
					c1.7-1.4,3.5-2,5.6-2c2,0,3.5,0.5,4.5,1.6c0.9,1.1,1.4,2.1,1.4,3.2c0,1-0.1,2.2-0.4,3.4h-14.5
					C561.7,206.3,562.9,204.3,564.6,202.9z"/>
				<path class="st2" d="M635,188.1l-6,34.3c-2.1,2.2-4.7,3.3-7.8,3.3c-3.9,0-5.8-1.7-5.8-5.2c0-1.3,0.1-2.6,0.3-3.9l5-28.6h-18.3
					l-6,33.8c-0.4,2.2-0.5,4.4-0.5,6.6c0,2.1,0.3,4.1,1,5.8c1.1,3.1,3.7,5.1,7.7,6.1c-7.5,4.7-11.3,10.1-11.3,16.2
					c0,4.3,1.6,7.8,4.8,10.4c3.2,2.6,8.4,4,15.6,4c7.2,0,13.7-2.7,19.3-8c5.6-5.3,9.2-12.5,10.8-21.6l9.5-53.4H635z M625.3,243
					c-1.4,8.5-4.5,12.7-9.1,12.7c-1.5,0-2.7-0.4-3.5-1.3c-0.8-0.9-1.2-2.1-1.2-3.5c0-4.7,5-9.4,14.9-14.1L625.3,243z"/>
			</g>
		</g>
	</g>
</g>
</svg>
