<?xml version="1.0" encoding="utf-8"?>
<!-- Generator: Adobe Illustrator 25.2.1, SVG Export Plug-In . SVG Version: 6.00 Build 0)  -->
<svg version="1.1" id="Layer_1" xmlns="http://www.w3.org/2000/svg" xmlns:xlink="http://www.w3.org/1999/xlink" x="0px" y="0px"
	 viewBox="0 0 16 16" style="enable-background:new 0 0 16 16;" xml:space="preserve">
<style type="text/css">
	.st0{fill:url(#SVGID_1_);}
	.st1{fill:#FFFFFF;}
</style>
<g>
	<g>
		<path d="M14.2,12.4c0.1,0.2,0.1,0.4,0.1,0.5c0.1,0.4,0.1,1.8,0,2.2c0,0.3-0.1,0.5-0.2,0.5c-0.7,0-1.3,0-2,0.1
			c-0.5,0-1.7,0.1-1.9,0c-0.1,0-0.2-0.2-0.2-0.2s-0.2-0.3-0.3-0.1c-0.1,0.1-0.3,0.2-0.4,0.3c-1.2,0.2-2.3,0-3.4-0.1
			c-0.5,0-1,0-1.5,0c-0.1,0-0.2-0.9-0.2-0.6c-0.1,0.4-0.2,0.4-0.3,0.4c-0.4,0-0.8-0.1-1.1-0.1c-0.5,0-1.1,0-1.6,0
			c-0.2,0-0.4,0-0.7,0c-0.1,0-0.1,0.1-0.2,0.1c0,0-0.1,0-0.1-0.1c0-0.1,0-0.4,0-0.4c0.2-0.6,0.4-1.2,0.6-1.5
			c0.1-0.1,0.1-0.3,0.1-0.4c-0.1-0.1-0.2-0.2-0.2-0.3c-0.1,0-0.2,0-0.2,0c-0.1,0-0.2,0-0.2-0.4c0-0.4,0-0.4,0.2-0.8
			c-0.1-0.2-0.1-0.4-0.2-0.5C0.1,10.8,0,10.4,0,9.9c0.1-1.1,0.2-2.1,0.4-3.2c0-0.3,0.1-0.5,0.2-0.8c0-0.1,0.1-0.3,0.1-0.4
			C0.8,5.3,0.8,5.1,0.9,5C1,4.7,1,4.4,1,4.1c0-0.2,0-0.5,0-0.7c0-0.1,0-0.2,0-0.2c-0.1-0.3,0-0.7,0-1C1,2,1,1.9,1.1,1.8
			c0.2-0.3,0.3-0.7,0.5-0.7c1,0-0.5-0.1,0.6-0.1c0.6,0,0,0,0.6,0c0.1,0,0.2-0.2,0.3-0.4c0.1-0.2,0.1-0.3,0.2-0.3
			c0.5,0,6-0.1,6.5-0.1c0.6,0,0.1,0.3,0.7,0.3c0.9,0,1.9,0,2.8,0c0.6,0,1.2,0,1.9,0c0.1,0,0.2-0.1,0.4-0.1C15.9,0.3,16,0.6,16,1.1
			c0,0.4-0.2,0.5-0.3,0.7c-0.2,0.2-0.2,0.4-0.2,0.8c0,0.1,0,0.3,0,0.4c-0.1,0.5-0.2,1-0.2,1.6c0,0.3-0.1,0.6-0.1,0.9
			c-0.1,0.3-0.1,0.6-0.2,1c0,0.3-0.1,0.6-0.2,0.8c-0.2,0.6-0.4,1.3-0.4,2c0,0.3-0.1,0.6-0.1,0.8c-0.1,0.3-0.1,0.6,0,0.6
			c0.1,0.1,0.2,0.3,0.1,0.7c0,0.2,0,0.4,0,0.6c0,0.1,0,0.2-0.1,0.3C14.3,12.3,14.3,12.3,14.2,12.4z"/>
	</g>
	<linearGradient id="SVGID_1_" gradientUnits="userSpaceOnUse" x1="3.5578" y1="8.1933" x2="12.0723" y2="8.1933">
		<stop  offset="2.663895e-07" style="stop-color:#00FFC3"/>
		<stop  offset="0.1441" style="stop-color:#00F6C7"/>
		<stop  offset="0.3826" style="stop-color:#00DDD3"/>
		<stop  offset="0.6857" style="stop-color:#00B4E7"/>
		<stop  offset="1" style="stop-color:#0082FE"/>
	</linearGradient>
	<path class="st0" d="M11.5,4.1c-0.4-0.4-0.9-0.6-1.7-0.6C8.9,3.5,8.2,4,7.5,5.1l0.2-1.3H5l-1.4,9h2.9l1-5.9c0.3-0.4,0.6-0.6,1-0.6
		c0.2,0,0.4,0.1,0.5,0.2c0.1,0.1,0.2,0.3,0.2,0.5L8.9,7L8.7,8.1h2.6l0.2-0.3c0.1-0.2,0.3-0.5,0.4-0.9c0.1-0.4,0.2-0.8,0.2-1.2
		C12.1,5,11.9,4.5,11.5,4.1z"/>
	<path class="st1" d="M7.6,5.8c0.3-0.4,0.6-0.6,1-0.6c0.2,0,0.4,0.1,0.5,0.2s0.2,0.3,0.2,0.6c0,0.4-0.1,0.8-0.4,1.1h2.6l0.2-0.3
		c0.1-0.2,0.3-0.5,0.4-0.9c0.1-0.4,0.2-0.8,0.2-1.2c0-0.7-0.2-1.2-0.6-1.6c-0.4-0.4-0.9-0.6-1.7-0.6C9.1,2.4,8.3,2.9,7.7,4l0.2-1.3
		H5.2l-1.4,9h2.9L7.6,5.8z"/>
</g>
</svg>
