<?xml version="1.0" encoding="utf-8"?>
<!-- Generator: Adobe Illustrator 25.2.1, SVG Export Plug-In . SVG Version: 6.00 Build 0)  -->
<svg version="1.1" id="Layer_1" xmlns="http://www.w3.org/2000/svg" xmlns:xlink="http://www.w3.org/1999/xlink" x="0px" y="0px"
	 viewBox="0 0 800 368" style="enable-background:new 0 0 800 368;" xml:space="preserve">
<style type="text/css">
	.st0{fill:url(#SVGID_1_);}
</style>
<g>
	<g>
		<linearGradient id="SVGID_1_" gradientUnits="userSpaceOnUse" x1="406.0721" y1="-151.6238" x2="397.2498" y2="268.905">
			<stop  offset="0.2815" style="stop-color:#0082FE"/>
			<stop  offset="1" style="stop-color:#18FFC9"/>
			<stop  offset="1" style="stop-color:#2BFFCE"/>
			<stop  offset="1" style="stop-color:#5DFFD9"/>
			<stop  offset="1" style="stop-color:#88FFE3"/>
			<stop  offset="1" style="stop-color:#ADFFEC"/>
			<stop  offset="1" style="stop-color:#CBFFF3"/>
			<stop  offset="1" style="stop-color:#E2FFF8"/>
			<stop  offset="1" style="stop-color:#F2FFFC"/>
			<stop  offset="1" style="stop-color:#FCFFFE"/>
			<stop  offset="1" style="stop-color:#FFFFFF"/>
		</linearGradient>
		<path class="st0" d="M736.3,293.1c3.8,4.3,6.1,7.1,8.6,9.5c7.3,7.1,6.2,16.3,6.4,25.1c0.2,6.4-3.4,9.7-10,9.3
			c-33.2-2-66.3-4-99.5-6c-25.1-1.5-50.2-2.8-75.4-4.4c-5.7-0.3-11.5-0.7-17.2-1.8c-3.1-0.6-6.6-2.2-8.8-4.5
			c-5.1-5.4-10.1-6.3-17.3-3.8c-6.3,2.1-13.1,3.8-19.7,3.7c-57.7-0.7-114.8-9-172.2-13.6c-25.3-2-50.6-3.4-75.9-5.1
			c-4.7-0.3-8.9,0.2-10.9,5.5c-2.6,6.7-8.2,7-14.4,6.4c-18.9-1.9-37.8-3.9-56.7-5.3c-27.2-2.1-54.4-3.6-81.6-5.5
			c-11.3-0.8-22.5-2.1-33.8-3c-2.9-0.2-5.9,0.6-8.8,0.4c-2.5-0.2-6.1-0.6-7-2.1c-1.3-2.4-2.1-6.9-0.7-8.7c8-10,14.7-21.4,27-27.1
			c4.3-2,5.3-5,1.7-7.5c-3.9-2.8-8.8-4.5-13.5-5.8c-3.6-1-7.7-0.4-11.4-1.2c-4.6-1-10-1.2-11.1-7.7c-1.1-6.8-0.5-8.3,7.8-14.4
			c-3.8-3.5-7.1-7.2-11.1-9.9c-7.8-5.4-12.5-13.1-11.9-21.8c1.3-20.1,3.9-40.1,6.8-60.1c0.7-4.9,4.3-9.3,6.6-14
			c1.2-2.5,2.3-5,3.4-7.4c1.7-3.6,2.9-7.7,5.3-10.7c3.9-4.9,4-9.9,2.4-15.5c-1.2-4.4-1.8-9-2.7-13.6c-0.3-1.7,0-3.8-0.9-4.9
			c-5.5-6.3-3-13.3-2.1-20.1c0.3-2.2,1.2-5.1,2.8-6.2c7.5-5,14-11.7,24.6-10.9c52.7,4.3-24-2.9,28.8,1c30.2,2.2-0.7,0.1,29.5,2.3
			c6.4,0.5,10.6-2.5,13.8-7.4c2.5-3.9,5.4-4.7,10.2-4.3c25,2.4,301.7,19.5,326.8,21.6c32.5,2.7,4,5.3,36.5,7.7
			c47.2,3.4,94.5,6.2,141.7,9.4c31.3,2.1,62.5,4.7,93.8,6.8c6.1,0.4,12.3-0.1,18.5-0.4c11-0.5,17.2,5.1,16.3,15.2
			c-0.6,6.9-6,9.4-11.3,11.7c-8.4,3.7-9.4,6.6-5,14.3c1,1.8,1.2,5,0.3,6.9c-4.4,9.3-5.9,18.8-5.7,29c0.1,5.6-1.2,11.3-2.2,16.9
			c-1.1,6-2.7,12-3.7,18c-0.9,5.8-3,10.4-7,15.1c-9,10.7-13.5,23.3-13.3,37.7c0.1,5.1-2.3,10.6-4.7,15.4c-2.6,5.3-1.6,11.2,4.1,12.7
			c7.7,1.9,9.3,6.7,9.2,13.7c-0.1,3.9,1.5,7.7,1.8,11.6c0.1,1.7-0.6,3.9-1.8,5.1C740.6,291.6,738.5,292.1,736.3,293.1z"/>
	</g>
	<g>
		<path d="M150.9,96.7c2-2.8,4.5-4.2,7.3-4.2c1.6,0,2.9,0.5,3.9,1.4c0.9,0.9,1.4,2.2,1.4,3.6c0,2.8-1,5.1-3.1,7h18.6l1.4-1.7
			c0.9-1.2,1.8-3.2,2.8-5.8c0.9-2.6,1.4-5.3,1.4-8.1c0-4.4-1.3-7.9-4-10.4c-2.7-2.5-6.7-3.8-12-3.8c-6.6,0-12.3,3.3-17,10l1.5-8.2
			h-19.4l-10.4,59.1H144L150.9,96.7z"/>
		<path d="M181.7,122.6c0,2.5,0.4,4.7,1.1,6.6c1.2,3.5,4.2,5.9,8.9,7c-8.6,5.4-12.9,11.6-12.9,18.6c0,4.9,1.8,8.9,5.5,11.9
			c3.6,3,9.6,4.5,17.9,4.5c8.3,0,15.6-3,22.1-9.1c6.4-6.1,10.6-14.3,12.4-24.7l10.8-61.1h-20.9l-6.9,39.2c-2.4,2.5-5.4,3.8-9,3.8
			c-4.4,0-6.6-2-6.6-5.9c0-1.5,0.1-3,0.4-4.4l5.8-32.7h-20.9l-6.9,38.7C181.9,117.7,181.7,120.2,181.7,122.6z M216.6,132.1l-1.2,7.1
			c-1.6,9.7-5.1,14.5-10.4,14.5c-1.7,0-3.1-0.5-4-1.5c-0.9-1-1.4-2.4-1.4-4C199.5,142.8,205.2,137.4,216.6,132.1z"/>
		<path d="M245.3,119.9c0,11.6,6.7,17.3,20.2,17.3c7.9,0,14-3.3,18.1-9.8c1,6.6,6,9.8,15,9.8c4.2,0,8-1.2,11.5-3.5l-0.3,1.8h20.9
			l6.9-39.2c2.2-2.5,5-3.8,8.4-3.8c3.4,0,5.1,1.8,5.1,5.3c0,1.1-0.1,2.3-0.4,3.8l-3,16.4c-0.3,1.9-0.5,3.6-0.5,5.3
			c0,9.3,5.6,14,16.7,14c4.9,0,9.3-1.6,13.2-4.8l0.6-13.9c-1.5,0.8-3.2,1.2-5,1.2c-2.5,0-3.7-1.1-3.7-3.3c0-0.4,0-0.9,0.1-1.4
			l3.3-18.9c0.4-2.5,0.6-5.3,0.6-8.2s-0.7-5.6-2.1-7.9c-2.2-3.6-7-5.4-14.4-5.4c-7.4,0-13.5,3-18.3,9l1.4-7.3h-19.4l-7.8,44.4
			l0.1-2.2c-1.5,0.8-3.3,1.2-5.5,1.2c-2.2,0-3.3-1.1-3.3-3.2c0-0.5,0-1,0.1-1.5l6.9-38.7H292l-0.6,3.7c-2.7-3.5-7.8-5.3-15.4-5.3
			c-7.6,0-13.7,2.2-18.4,6.6c-4.7,4.4-7.7,10.3-9,17.6l-2.6,14.4C245.5,115.8,245.3,118,245.3,119.9z M267.3,110.7l1.6-9.2
			c1.1-6.1,4.8-9.1,11.1-9.1c3.4,0,5.5,1,6.4,3.1l-3.7,20.7c-2.1,2.3-4.7,3.4-7.6,3.4c-2.9,0-5-0.6-6.2-1.9
			c-1.2-1.3-1.8-2.6-1.8-3.9C267,112.5,267.1,111.5,267.3,110.7z"/>
		<path d="M157.9,205.8H182l3.1-17.3h-30.6l3.7-20.5h-20.9l-15.7,89c-0.8,4.7-1.2,9.4-1.2,14.1c0,4.7,1.1,8.7,3.2,12
			c3.4,5.2,10.4,7.7,20.8,7.7c10.4,0,18.7-3.8,24.8-11.5c6.1-7.7,9.2-17.5,9.2-29.4c0-9.8-1.9-18.4-5.8-25.8
			C168.5,216.5,163.7,210.4,157.9,205.8z M153.9,267c-1.8,4.1-4,6.1-6.5,6.1c-3.9,0-5.8-3-5.8-8.9c0-2.1,0.2-4.6,0.7-7.5l7.4-42.2
			c1.9,3.9,3.5,9.2,4.9,16c1.4,6.8,2,13.5,2,20.2C156.6,257.5,155.7,262.9,153.9,267z"/>
		<path d="M204.2,219.9h37.5l1.5-8.7c0.3-2.1,0.5-4.1,0.5-5.9c0-12.5-8.2-18.7-24.7-18.7c-9.7,0-17.4,2.1-23.3,6.3
			c-5.9,4.2-9.5,10.3-10.9,18.1l-2.6,15.2c-0.3,1.9-0.5,3.6-0.5,5.3c0,11.8,8.5,17.7,25.6,17.7c18.7,0,29.4-7.7,32.1-23L219,226
			c-0.2,1.6-1.1,3.1-2.5,4.3c-1.4,1.2-3.1,1.8-5,1.8c-5.3,0-8-2.3-8-6.8c0-0.8,0.1-1.7,0.2-2.7L204.2,219.9z M209.4,205.4
			c1.9-1.6,4.1-2.3,6.4-2.3s4,0.6,5.1,1.8c1.1,1.2,1.6,2.4,1.6,3.6c0,1.2-0.2,2.5-0.5,3.9h-16.6
			C206.2,209.3,207.5,206.9,209.4,205.4z"/>
		<path d="M411.7,186.6c-9.7,0-17.4,2.1-23.3,6.3c-5.9,4.2-9.5,10.3-10.9,18.1l-2.6,15.2c-0.3,1.7-0.4,3.2-0.5,4.7
			c-1.3,0.5-2.7,0.8-4.2,0.8c-2.5,0-3.7-1.1-3.7-3.3c0-0.4,0-0.9,0.1-1.4l3.3-18.9c0.4-2.5,0.6-5.3,0.6-8.2s-0.7-5.6-2.1-7.9
			c-2.2-3.6-7-5.4-14.4-5.4c-7.4,0-13.5,3-18.3,9l1.4-7.3h-19.4l-7.5,42.2c-1.5,0.8-3.1,1.2-5,1.2c-2.5,0-3.7-1.1-3.7-3.3
			c0-0.4,0-0.9,0.1-1.4l3.3-18.9c0.4-2.5,0.6-5.3,0.6-8.2s-0.7-5.6-2.1-7.9c-2.2-3.6-7-5.4-14.4-5.4c-7.4,0-13.5,3-18.3,9l1.4-7.3
			h-19.4l-10.4,59.1h20.9l6.9-39.2c2.2-2.5,5-3.8,8.4-3.8c3.4,0,5.1,1.8,5.1,5.3c0,1.1-0.1,2.3-0.4,3.8l-3,16.4
			c-0.3,1.9-0.5,3.6-0.5,5.3c0,9.3,5.6,14,16.7,14c4,0,7.7-1.1,11-3.2l-0.3,1.5h20.9l6.9-39.2c2.2-2.5,5-3.8,8.4-3.8
			c3.4,0,5.1,1.8,5.1,5.3c0,1.1-0.1,2.3-0.4,3.8l-3,16.4c-0.3,1.9-0.5,3.6-0.5,5.3c0,9.3,5.6,14,16.7,14c4.9,0,9.3-1.6,13.2-4.8
			c0,0,2.2-2.4,5.2-0.4c4.2,3.4,10.9,5.2,20.1,5.2c18.7,0,29.4-7.7,32.1-23l-20.4-0.2c-0.2,1.6-1.1,3.1-2.5,4.3
			c-1.4,1.2-3.1,1.8-5,1.8c-5.3,0-8-2.3-8-6.8c0-0.8,0.1-1.7,0.2-2.7l0.5-2.8h37.5l1.5-8.7c0.3-2.1,0.5-4.1,0.5-5.9
			C436.4,192.8,428.2,186.6,411.7,186.6z M414.8,212.4h-16.6c0.7-3.1,2.1-5.4,4-7c1.9-1.6,4.1-2.3,6.4-2.3s4,0.6,5.1,1.8
			c1.1,1.2,1.6,2.4,1.6,3.6C415.3,209.7,415.1,211,414.8,212.4z"/>
		<path d="M497.2,208.7c1.6-2.3,2.5-4.8,2.5-7.5c0-9.8-8.4-14.6-25.2-14.6c-10.9,0-19.2,2-25,6c-5.8,4-8.7,9.8-8.7,17.2
			c0,3.9,1.1,7,3.4,9.3c2.3,2.4,5.1,3.9,8.4,4.7c3.3,0.7,6.6,1.3,10,1.6c3.3,0.3,6.1,0.7,8.4,1.2c2.3,0.5,3.4,1.3,3.4,2.4
			c0,1.7-0.7,2.9-2,3.5c-1.3,0.6-3.4,0.9-6.4,0.9c-3,0-5.2-0.4-6.7-1.3c-1.5-0.9-2.2-1.9-2-3l-20.5,0.2c-0.2,1.4-0.4,2.7-0.4,4.1
			c0,4.6,1.6,8.2,4.9,10.8c4.2,3.4,11.5,5,21.9,5c10.4,0,18.3-1.8,23.8-5.3c5.4-3.5,8.2-8.7,8.2-15.5c0-3.9-1.1-6.9-3.4-9.2
			c-2.3-2.3-5.1-3.8-8.4-4.6c-3.3-0.8-6.6-1.4-9.8-1.8c-3.3-0.4-6.1-0.9-8.4-1.6c-2.3-0.7-3.4-1.7-3.4-3.2c0-3.8,3.1-5.7,9.2-5.7
			c2,0,3.7,0.3,5,1c1.3,0.7,2,1.6,2,2.8c0,1.1-0.3,2-1,2.5H497.2z"/>
		<path d="M559.7,208.7c1.6-2.3,2.5-4.8,2.5-7.5c0-9.8-8.4-14.6-25.2-14.6c-10.9,0-19.2,2-25,6c-5.8,4-8.7,9.8-8.7,17.2
			c0,3.9,1.1,7,3.4,9.3c2.3,2.4,5.1,3.9,8.4,4.7c3.3,0.7,6.6,1.3,10,1.6c3.3,0.3,6.1,0.7,8.4,1.2c2.3,0.5,3.4,1.3,3.4,2.4
			c0,1.7-0.7,2.9-2,3.5c-1.3,0.6-3.4,0.9-6.4,0.9c-3,0-5.2-0.4-6.7-1.3c-1.5-0.9-2.2-1.9-2-3l-20.5,0.2c-0.2,1.4-0.4,2.7-0.4,4.1
			c0,4.6,1.6,8.2,4.9,10.8c4.2,3.4,11.5,5,21.9,5c10.4,0,18.3-1.8,23.8-5.3c5.4-3.5,8.2-8.7,8.2-15.5c0-3.9-1.1-6.9-3.4-9.2
			c-2.3-2.3-5.1-3.8-8.4-4.6c-3.3-0.8-6.6-1.4-9.8-1.8c-3.3-0.4-6.1-0.9-8.4-1.6c-2.3-0.7-3.4-1.7-3.4-3.2c0-3.8,3.1-5.7,9.2-5.7
			c2,0,3.7,0.3,5,1c1.3,0.7,2,1.6,2,2.8c0,1.1-0.3,2-1,2.5H559.7z"/>
		<path d="M584.2,219.9h37.5l1.5-8.7c0.3-2.1,0.5-4.1,0.5-5.9c0-12.5-8.2-18.7-24.7-18.7c-9.7,0-17.4,2.1-23.3,6.3
			c-5.9,4.2-9.5,10.3-10.9,18.1l-2.6,15.2c-0.3,1.9-0.5,3.6-0.5,5.3c0,11.8,8.5,17.7,25.6,17.7c18.7,0,29.4-7.7,32.1-23l-20.4-0.2
			c-0.2,1.6-1.1,3.1-2.5,4.3c-1.4,1.2-3.1,1.8-5,1.8c-5.3,0-8-2.3-8-6.8c0-0.8,0.1-1.7,0.2-2.7L584.2,219.9z M589.4,205.4
			c1.9-1.6,4.1-2.3,6.4-2.3c2.3,0,4,0.6,5.1,1.8c1.1,1.2,1.6,2.4,1.6,3.6c0,1.2-0.2,2.5-0.5,3.9h-16.6
			C586.2,209.3,587.5,206.9,589.4,205.4z"/>
		<path d="M670,188.4l-6.9,39.2c-2.4,2.5-5.4,3.8-9,3.8c-4.4,0-6.6-2-6.6-5.9c0-1.5,0.1-3,0.4-4.4l5.8-32.7h-20.9l-6.9,38.7
			c-0.4,2.5-0.6,5-0.6,7.5c0,2.5,0.4,4.7,1.1,6.6c1.2,3.5,4.2,5.9,8.9,7c-8.6,5.4-12.9,11.6-12.9,18.6c0,4.9,1.8,8.9,5.5,11.9
			c3.6,3,9.6,4.5,17.9,4.5c8.3,0,15.6-3,22.1-9.1c6.4-6.1,10.6-14.3,12.4-24.7l10.8-61.1H670z M658.9,251.2
			c-1.6,9.7-5.1,14.5-10.4,14.5c-1.7,0-3.1-0.5-4-1.5c-0.9-1-1.4-2.4-1.4-4c0-5.4,5.7-10.8,17.1-16.1L658.9,251.2z"/>
	</g>
</g>
</svg>
