<?xml version="1.0" encoding="utf-8"?>
<!-- Generator: Adobe Illustrator 25.2.1, SVG Export Plug-In . SVG Version: 6.00 Build 0)  -->
<svg version="1.1" id="Layer_1" xmlns="http://www.w3.org/2000/svg" xmlns:xlink="http://www.w3.org/1999/xlink" x="0px" y="0px"
	 viewBox="0 0 192.68 210.39" style="enable-background:new 0 0 192.68 210.39;" xml:space="preserve">
<style type="text/css">
	.st0{fill:none;}
	.st1{fill:#FFFFFF;}
</style>
<g>
	<g>
		<path class="st0" d="M130.71,82.6l-10.19,58.25c-0.68,3.96-1.02,7.41-1.02,10.36c0,8.15,2.66,12.23,7.98,12.23
			c3.51,0,6.51-2.83,9-8.49c2.49-5.66,3.74-13.11,3.74-22.33c0-9.22-0.93-18.54-2.8-27.93C135.55,95.28,133.31,87.92,130.71,82.6z"
			/>
		<path class="st1" d="M179.44,46.43h-42.28l5.09-28.36h-28.87l-3.68,20.84c1.52,0.95,2.93,2.02,4.22,3.25
			c4.05,3.87,8.88,10.87,8.88,22.28c0,5.08-0.87,10.08-2.59,14.87c-1.7,4.72-3.38,8.13-5.28,10.73l-0.22,0.29l-5.12,6.52H99.46
			l-7.81,44.19c-1.13,6.45-1.7,12.93-1.7,19.44c0,6.51,1.47,12.03,4.42,16.56c4.75,7.13,14.35,10.7,28.78,10.7
			c14.43,0,25.87-5.29,34.3-15.88c8.43-10.59,12.65-24.14,12.65-40.67c0-13.47-2.69-25.36-8.07-35.66
			c-5.38-10.3-12.09-18.68-20.12-25.13h33.28L179.44,46.43z M136.48,154.94c-2.49,5.66-5.49,8.49-9,8.49
			c-5.32,0-7.98-4.08-7.98-12.23c0-2.95,0.34-6.4,1.02-10.36l10.19-58.25c2.6,5.32,4.84,12.68,6.71,22.08
			c1.87,9.4,2.8,18.71,2.8,27.93C140.22,141.84,138.97,149.28,136.48,154.94z"/>
	</g>
	<path class="st1" d="M66.74,75.13c2.83-3.85,6.17-5.77,10.02-5.77c2.26,0,4.05,0.65,5.35,1.95c1.3,1.3,1.95,2.97,1.95,5.01
		c0,3.85-1.42,7.08-4.25,9.68h25.64l1.87-2.38c1.24-1.7,2.52-4.36,3.82-7.98c1.3-3.62,1.95-7.36,1.95-11.21
		c0-6.11-1.84-10.92-5.52-14.43c-3.68-3.51-9.2-5.26-16.56-5.26c-9.17,0-16.98,4.58-23.43,13.75l2.04-11.38H42.8l-14.43,81.68h28.87
		L66.74,75.13z"/>
</g>
</svg>
