<?xml version="1.0" encoding="utf-8"?>
<!-- Generator: Adobe Illustrator 25.2.1, SVG Export Plug-In . SVG Version: 6.00 Build 0)  -->
<svg version="1.1" id="Layer_1" xmlns="http://www.w3.org/2000/svg" xmlns:xlink="http://www.w3.org/1999/xlink" x="0px" y="0px"
	 viewBox="0 0 16 16" style="enable-background:new 0 0 16 16;" xml:space="preserve">
<style type="text/css">
	.st0{fill:#FFFFFF;}
</style>
<g>
	<g>
		<path d="M14.21,12.4c0.06,0.21,0.1,0.35,0.14,0.47c0.12,0.35,0.07,1.78,0.04,2.25c-0.02,0.33-0.11,0.52-0.24,0.53
			c-0.66,0.02-1.33,0.04-1.99,0.06c-0.5,0.02-1.74,0.07-1.85,0.03c-0.06-0.02-0.16-0.2-0.16-0.2s-0.18-0.29-0.34-0.13
			c-0.14,0.14-0.28,0.25-0.41,0.27c-1.17,0.18-2.29-0.04-3.44-0.06c-0.5-0.01-1.01,0.01-1.52,0.02c-0.09,0-0.19-0.91-0.25-0.62
			c-0.08,0.36-0.19,0.4-0.32,0.39c-0.38-0.03-0.75-0.06-1.13-0.07c-0.54-0.01-1.09,0.02-1.63,0.02c-0.23,0-0.45-0.03-0.67-0.03
			c-0.06,0-0.12,0.05-0.18,0.05c-0.05,0-0.12-0.01-0.13-0.09c-0.02-0.12-0.02-0.36,0.02-0.45c0.2-0.56,0.38-1.18,0.65-1.53
			c0.1-0.12,0.13-0.28,0.06-0.4c-0.07-0.13-0.16-0.2-0.25-0.26c-0.07-0.04-0.15,0.01-0.23-0.02c-0.09-0.03-0.2-0.03-0.19-0.36
			c0-0.35,0.02-0.43,0.21-0.79C0.34,11.31,0.28,11.13,0.21,11c-0.14-0.25-0.2-0.64-0.16-1.1c0.11-1.06,0.24-2.13,0.37-3.19
			C0.46,6.45,0.55,6.2,0.62,5.95c0.03-0.13,0.07-0.27,0.1-0.4c0.05-0.2,0.09-0.41,0.15-0.59c0.1-0.28,0.12-0.54,0.11-0.83
			c-0.01-0.23,0-0.47,0-0.71c0-0.09,0.02-0.2,0-0.25C0.89,2.86,0.96,2.48,1.01,2.12C1.02,2,1.05,1.85,1.09,1.78
			c0.17-0.29,0.33-0.67,0.54-0.67c1.05,0.03-0.47-0.06,0.58-0.06c0.6,0-0.01,0.01,0.59,0.01c0.13,0,0.23-0.17,0.31-0.44
			c0.07-0.22,0.13-0.27,0.22-0.26c0.5,0.03,6.04-0.12,6.54-0.11c0.65,0.02,0.06,0.27,0.71,0.27c0.94,0,1.89-0.03,2.84-0.04
			c0.63-0.01,1.25,0.01,1.88,0c0.12,0,0.25-0.05,0.38-0.09c0.23-0.07,0.33,0.2,0.27,0.74c-0.04,0.37-0.16,0.52-0.27,0.66
			c-0.18,0.23-0.22,0.38-0.16,0.77c0.01,0.09,0,0.26-0.02,0.36c-0.12,0.5-0.19,1.01-0.23,1.55c-0.02,0.29-0.07,0.6-0.11,0.9
			C15.1,5.69,15.05,6.01,15,6.33c-0.04,0.31-0.1,0.56-0.2,0.82c-0.22,0.6-0.36,1.28-0.42,2.04c-0.02,0.27-0.09,0.57-0.15,0.83
			c-0.07,0.29-0.08,0.6,0.03,0.65c0.15,0.07,0.16,0.32,0.13,0.69c-0.02,0.2,0,0.4-0.01,0.61c0,0.09-0.03,0.21-0.06,0.28
			C14.31,12.31,14.26,12.34,14.21,12.4z"/>
	</g>
	<path class="st0" d="M7.57,6.62c0.31-0.46,0.67-0.69,1.08-0.69c0.24,0,0.44,0.08,0.58,0.23c0.14,0.15,0.21,0.35,0.21,0.6
		c0,0.46-0.15,0.84-0.46,1.15h2.77l0.2-0.28c0.13-0.2,0.27-0.52,0.41-0.95c0.14-0.43,0.21-0.88,0.21-1.33c0-0.73-0.2-1.3-0.6-1.72
		C11.58,3.21,10.98,3,10.19,3C9.2,3,8.36,3.55,7.66,4.64l0.22-1.35h-2.9L3.43,13h3.12L7.57,6.62z"/>
</g>
</svg>
