<?xml version="1.0" encoding="utf-8"?>
<!-- Generator: Adobe Illustrator 25.2.1, SVG Export Plug-In . SVG Version: 6.00 Build 0)  -->
<svg version="1.1" id="Layer_1" xmlns="http://www.w3.org/2000/svg" xmlns:xlink="http://www.w3.org/1999/xlink" x="0px" y="0px"
	 viewBox="0 0 192.7 210.4" style="enable-background:new 0 0 192.7 210.4;" xml:space="preserve">
<style type="text/css">
	.st0{fill:url(#SVGID_1_);}
	.st1{fill:#FFFFFF;}
</style>
<linearGradient id="SVGID_1_" gradientUnits="userSpaceOnUse" x1="21.4936" y1="115.9787" x2="172.2936" y2="115.9787">
	<stop  offset="2.663895e-07" style="stop-color:#00FFC3"/>
	<stop  offset="0.1441" style="stop-color:#00F6C7"/>
	<stop  offset="0.3826" style="stop-color:#00DDD3"/>
	<stop  offset="0.6857" style="stop-color:#00B4E7"/>
	<stop  offset="1" style="stop-color:#0082FE"/>
</linearGradient>
<path class="st0" d="M172.3,59.6h-42.2l5.1-28.3h-28.8l-3.7,20.8c1.5,0.9,2.9,2,4.2,3.2c4,3.9,8.9,10.8,8.9,22.2
	c0,5.1-0.9,10.1-2.6,14.8c-1.7,4.7-3.4,8.1-5.3,10.7l-0.2,0.3l-5.1,6.5H92.5L84.7,154c-1.1,6.4-1.7,12.9-1.7,19.4s1.5,12,4.4,16.5
	c4.7,7.1,14.3,10.7,28.7,10.7s25.8-5.3,34.2-15.8c8.4-10.6,12.6-24.1,12.6-40.6c0-13.4-2.7-25.3-8.1-35.6S142.7,90,134.7,83.5h33.4
	L172.3,59.6z M129.4,167.9c-2.5,5.6-5.5,8.5-9,8.5c-5.3,0-8-4.1-8-12.2c0-2.9,0.3-6.4,1-10.3l10.2-58.1c2.6,5.3,4.8,12.7,6.7,22
	c1.9,9.4,2.8,18.7,2.8,27.9C133.2,154.8,131.9,162.2,129.4,167.9z M59.8,88.2c2.8-3.8,6.2-5.8,10-5.8c2.3,0,4,0.6,5.3,1.9
	s0.1,1.9,0.1,1.9L72.8,99h25.6l1.9-2.4c1.2-1.7,2.5-4.4,3.8-8s1.9-7.3,1.9-11.2c0-6.1-1.8-10.9-5.5-14.4c-3.7-3.5-9.2-5.2-16.5-5.2
	c-9.2,0-16.9,4.6-23.4,13.7l2-11.4H35.9l-14.4,81.5h28.8L59.8,88.2z"/>
<path class="st1" d="M174.7,46.6h-42.2l5.1-28.3h-28.8l-3.7,20.8c1.5,0.9,2.9,2,4.2,3.2c4,3.9,8.9,10.8,8.9,22.2
	c0,5.1-0.9,10.1-2.6,14.8c-1.7,4.7-3.4,8.1-5.3,10.7l-0.2,0.3l-5.1,6.5H94.9L87.1,141c-1.1,6.4-1.7,12.9-1.7,19.4s1.5,12,4.4,16.5
	c4.7,7.1,14.3,10.7,28.7,10.7s25.8-5.3,34.2-15.8c8.4-10.6,12.6-24.1,12.6-40.6c0-13.4-2.7-25.3-8.1-35.6S145.1,77,137.1,70.5h33.4
	L174.7,46.6z M131.8,154.9c-2.5,5.6-5.5,8.5-9,8.5c-5.3,0-8-4.1-8-12.2c0-2.9,0.3-6.4,1-10.3L126,82.8c2.6,5.3,4.8,12.7,6.7,22
	c1.9,9.4,2.8,18.7,2.8,27.9C135.6,141.8,134.3,149.2,131.8,154.9z M62.2,75.2c2.8-3.8,6.2-5.8,10-5.8c2.3,0,4,0.6,5.3,1.9
	s1.9,3,1.9,5c0,3.8-1.4,7.1-4.2,9.7h25.6l1.9-2.4c1.2-1.7,2.5-4.4,3.8-8s1.9-7.3,1.9-11.2c0-6.1-1.8-10.9-5.5-14.4
	s-9.2-5.2-16.5-5.2c-9.2,0-16.9,4.6-23.4,13.7l2-11.4H38.3l-14.4,81.5h28.8L62.2,75.2z"/>
</svg>
