<?xml version="1.0" encoding="utf-8"?>
<!-- Generator: Adobe Illustrator 25.2.1, SVG Export Plug-In . SVG Version: 6.00 Build 0)  -->
<svg version="1.1" id="Layer_1" xmlns="http://www.w3.org/2000/svg" xmlns:xlink="http://www.w3.org/1999/xlink" x="0px" y="0px"
	 viewBox="0 0 800 368" style="enable-background:new 0 0 800 368;" xml:space="preserve">
<style type="text/css">
	.st0{fill:#FFFFFF;}
</style>
<g>
	<g>
		<path d="M742.67,297.97c3.8,4.24,6.01,7,8.51,9.44c7.2,7.04,6.11,16.13,6.38,24.85c0.19,6.31-3.38,9.63-9.9,9.25
			c-32.86-1.95-65.72-4-98.59-5.96c-24.89-1.48-49.79-2.82-74.68-4.31c-5.69-0.34-11.44-0.65-17.01-1.75
			c-3.11-0.61-6.58-2.19-8.7-4.44c-5.08-5.37-10.03-6.21-17.18-3.77c-6.22,2.12-13.02,3.75-19.54,3.67
			c-57.16-0.66-113.75-8.89-170.62-13.47c-25.04-2.02-50.13-3.42-75.2-5.05c-4.62-0.3-8.81,0.18-10.85,5.43
			c-2.57,6.62-8.17,6.96-14.24,6.36c-18.72-1.85-37.43-3.87-56.19-5.29c-26.95-2.05-53.94-3.54-80.9-5.44
			c-11.17-0.79-22.29-2.1-33.45-2.98c-2.89-0.23-5.86,0.59-8.74,0.35c-2.45-0.21-6.08-0.57-6.94-2.11
			c-1.32-2.36-2.07-6.86-0.69-8.58c7.91-9.89,14.57-21.23,26.74-26.86c4.29-1.99,5.28-4.92,1.69-7.43
			c-3.9-2.73-8.71-4.43-13.35-5.77c-3.57-1.03-7.58-0.44-11.26-1.22c-4.6-0.98-9.92-1.23-10.99-7.65c-1.12-6.7-0.54-8.18,7.74-14.28
			c-3.78-3.43-7.06-7.11-11.01-9.83c-7.73-5.32-12.4-12.93-11.82-21.59c1.32-19.91,3.89-39.76,6.7-59.53
			c0.69-4.84,4.3-9.26,6.52-13.88c1.17-2.43,2.25-4.91,3.39-7.36c1.69-3.59,2.84-7.59,5.23-10.65c3.83-4.9,3.96-9.8,2.38-15.4
			c-1.23-4.39-1.83-8.97-2.67-13.46c-0.31-1.64,0.04-3.79-0.89-4.85c-5.43-6.22-3.02-13.16-2.12-19.89c0.29-2.18,1.15-5.1,2.76-6.16
			c7.45-4.91,13.86-11.62,24.33-10.77c52.23,4.24-23.75-2.85,28.52,0.98c29.93,2.19-0.66,0.12,29.27,2.25
			c6.37,0.45,10.55-2.46,13.66-7.34c2.47-3.88,5.39-4.69,10.07-4.25c24.81,2.33,298.98,19.32,323.83,21.37
			c32.23,2.66,3.92,5.29,36.18,7.61c46.8,3.36,93.64,6.11,140.45,9.3c30.99,2.11,61.95,4.64,92.94,6.76
			c6.06,0.41,12.2-0.08,18.3-0.37c10.95-0.52,17.04,5.04,16.19,15.02c-0.58,6.83-5.99,9.31-11.17,11.6
			c-8.33,3.67-9.33,6.57-4.95,14.17c1.03,1.78,1.15,4.94,0.27,6.8c-4.32,9.18-5.88,18.67-5.61,28.79
			c0.15,5.56-1.23,11.19-2.21,16.73c-1.06,5.99-2.67,11.88-3.65,17.87c-0.93,5.71-3.02,10.32-6.96,14.98
			c-8.95,10.58-13.36,23.11-13.17,37.37c0.07,5.1-2.28,10.53-4.62,15.28c-2.58,5.23-1.6,11.11,4.11,12.55
			c7.65,1.93,9.24,6.68,9.1,13.56c-0.08,3.82,1.5,7.66,1.81,11.53c0.13,1.67-0.62,3.82-1.75,5.05
			C746.94,296.48,744.84,296.93,742.67,297.97z"/>
	</g>
	<g>
		<path class="st0" d="M162.51,103.3c2.03-2.76,4.43-4.14,7.19-4.14c1.62,0,2.9,0.47,3.84,1.4c0.93,0.93,1.4,2.13,1.4,3.59
			c0,2.76-1.02,5.08-3.05,6.94h18.4l1.34-1.71c0.89-1.22,1.81-3.13,2.74-5.73c0.93-2.6,1.4-5.28,1.4-8.04
			c0-4.39-1.32-7.84-3.96-10.36c-2.64-2.52-6.6-3.78-11.88-3.78c-6.58,0-12.18,3.29-16.81,9.87l1.46-8.16h-19.25l-10.36,58.6h20.71
			L162.51,103.3z"/>
		<path class="st0" d="M193.09,129c0,2.44,0.37,4.63,1.1,6.58c1.22,3.49,4.14,5.81,8.77,6.94c-8.53,5.36-12.79,11.49-12.79,18.4
			c0,4.87,1.81,8.81,5.42,11.82c3.61,3,9.52,4.51,17.73,4.51c8.2,0,15.49-3.01,21.87-9.02c6.38-6.01,10.46-14.17,12.24-24.49
			l10.72-60.55h-20.71l-6.82,38.86c-2.36,2.52-5.32,3.78-8.89,3.78c-4.39,0-6.58-1.95-6.58-5.85c0-1.46,0.12-2.92,0.37-4.39
			l5.73-32.41h-20.71l-6.82,38.38C193.29,124.09,193.09,126.57,193.09,129z M227.69,138.38l-1.22,7.07
			c-1.63,9.58-5.08,14.38-10.36,14.38c-1.71,0-3.03-0.51-3.96-1.52c-0.93-1.02-1.4-2.34-1.4-3.96
			C210.75,148.98,216.4,143.66,227.69,138.38z"/>
		<path class="st0" d="M256.07,126.32c0,11.45,6.66,17.18,19.98,17.18c7.88,0,13.85-3.25,17.91-9.75c0.97,6.5,5.93,9.75,14.86,9.75
			c4.15,0,7.95-1.16,11.4-3.46l-0.31,1.76h20.71l6.82-38.86c2.19-2.52,4.97-3.78,8.35-3.78c3.37,0,5.06,1.75,5.06,5.24
			c0,1.06-0.12,2.31-0.37,3.78l-2.92,16.2c-0.33,1.87-0.49,3.61-0.49,5.24c0,9.26,5.52,13.89,16.57,13.89
			c4.87,0,9.22-1.58,13.04-4.75l0.61-13.77c-1.46,0.81-3.13,1.22-5,1.22c-2.44,0-3.65-1.1-3.65-3.29c0-0.41,0.04-0.85,0.12-1.34
			l3.29-18.76c0.41-2.52,0.61-5.24,0.61-8.16c0-2.92-0.69-5.52-2.07-7.8c-2.19-3.57-6.94-5.36-14.25-5.36
			c-7.31,0-13.36,2.97-18.15,8.89l1.34-7.19h-19.25l-7.77,43.97l0.1-2.19c-1.46,0.81-3.27,1.22-5.42,1.22
			c-2.15,0-3.23-1.05-3.23-3.17c0-0.49,0.04-0.97,0.12-1.46l6.82-38.38h-18.52l-0.61,3.66c-2.68-3.49-7.78-5.24-15.29-5.24
			c-7.51,0-13.61,2.17-18.27,6.52c-4.67,4.35-7.66,10.17-8.95,17.48l-2.56,14.25C256.27,122.22,256.07,124.37,256.07,126.32z
			 M277.88,117.18l1.58-9.14c1.05-6.01,4.71-9.02,10.96-9.02c3.33,0,5.44,1.02,6.34,3.05l-3.66,20.47
			c-2.11,2.28-4.61,3.41-7.49,3.41c-2.88,0-4.93-0.63-6.15-1.89c-1.22-1.26-1.83-2.54-1.83-3.84
			C277.64,118.93,277.72,117.92,277.88,117.18z"/>
		<path class="st0" d="M169.45,211.38h23.88l3.05-17.18h-30.34l3.66-20.35h-20.71l-15.59,88.21c-0.81,4.63-1.22,9.28-1.22,13.95
			c0,4.67,1.06,8.63,3.17,11.88c3.41,5.12,10.29,7.68,20.65,7.68c10.36,0,18.56-3.8,24.61-11.39c6.05-7.6,9.08-17.32,9.08-29.18
			c0-9.66-1.93-18.19-5.79-25.58C180.03,222.02,175.22,216,169.45,211.38z M165.55,272.05c-1.79,4.06-3.94,6.09-6.46,6.09
			c-3.82,0-5.73-2.92-5.73-8.77c0-2.11,0.24-4.59,0.73-7.43l7.31-41.79c1.87,3.82,3.47,9.1,4.81,15.84
			c1.34,6.74,2.01,13.42,2.01,20.04C168.23,262.65,167.34,267.99,165.55,272.05z"/>
		<path class="st0" d="M215.38,225.39h37.16l1.46-8.65c0.32-2.11,0.49-4.06,0.49-5.85c0-12.35-8.16-18.52-24.49-18.52
			c-9.58,0-17.28,2.09-23.09,6.27c-5.81,4.18-9.4,10.17-10.78,17.97l-2.56,15.11c-0.33,1.87-0.49,3.61-0.49,5.24
			c0,11.7,8.45,17.54,25.34,17.54c18.52,0,29.12-7.59,31.8-22.78L230,231.48c-0.24,1.63-1.06,3.05-2.44,4.26
			c-1.38,1.22-3.05,1.83-5,1.83c-5.28,0-7.92-2.23-7.92-6.7c0-0.81,0.08-1.71,0.24-2.68L215.38,225.39z M220.56,211.01
			c1.91-1.54,4.02-2.31,6.34-2.31c2.31,0,4,0.61,5.06,1.83c1.05,1.22,1.58,2.42,1.58,3.59c0,1.18-0.16,2.46-0.49,3.84H216.6
			C217.33,214.87,218.65,212.55,220.56,211.01z"/>
		<path class="st0" d="M421.03,192.37c-9.58,0-17.28,2.09-23.09,6.27c-5.81,4.18-9.4,10.17-10.78,17.97l-2.56,15.11
			c-0.29,1.65-0.43,3.19-0.46,4.65c-1.26,0.54-2.64,0.83-4.17,0.83c-2.44,0-3.65-1.1-3.65-3.29c0-0.41,0.04-0.85,0.12-1.34
			l3.29-18.76c0.41-2.52,0.61-5.24,0.61-8.16c0-2.92-0.69-5.52-2.07-7.8c-2.19-3.57-6.94-5.36-14.25-5.36
			c-7.31,0-13.36,2.97-18.15,8.89l1.34-7.19h-19.25l-7.39,41.83c-1.44,0.78-3.08,1.18-4.91,1.18c-2.44,0-3.65-1.1-3.65-3.29
			c0-0.41,0.04-0.85,0.12-1.34l3.29-18.76c0.41-2.52,0.61-5.24,0.61-8.16c0-2.92-0.69-5.52-2.07-7.8
			c-2.19-3.57-6.94-5.36-14.25-5.36c-7.31,0-13.36,2.97-18.15,8.89l1.34-7.19h-19.25l-10.36,58.6h20.71l6.82-38.86
			c2.19-2.52,4.97-3.78,8.35-3.78c3.37,0,5.06,1.75,5.06,5.24c0,1.06-0.12,2.31-0.37,3.78l-2.92,16.2
			c-0.33,1.87-0.49,3.61-0.49,5.24c0,9.26,5.52,13.89,16.57,13.89c3.97,0,7.59-1.07,10.86-3.18l-0.26,1.47h20.71l6.82-38.86
			c2.19-2.52,4.97-3.78,8.35-3.78c3.37,0,5.06,1.75,5.06,5.24c0,1.06-0.12,2.31-0.37,3.78l-2.92,16.2
			c-0.33,1.87-0.49,3.61-0.49,5.24c0,9.26,5.52,13.89,16.57,13.89c4.87,0,9.22-1.58,13.04-4.75l0.17-3.8l2.38,4.85
			c0,0,1.15-0.57,2.58-1.43c4.2,3.41,10.84,5.14,19.96,5.14c18.52,0,29.12-7.59,31.8-22.78l-20.22-0.24
			c-0.24,1.63-1.06,3.05-2.44,4.26c-1.38,1.22-3.05,1.83-5,1.83c-5.28,0-7.92-2.23-7.92-6.7c0-0.81,0.08-1.71,0.24-2.68l0.49-2.8
			h37.16l1.46-8.65c0.32-2.11,0.49-4.06,0.49-5.85C445.52,198.54,437.36,192.37,421.03,192.37z M424.08,217.95h-16.45
			c0.73-3.09,2.05-5.4,3.96-6.94c1.91-1.54,4.02-2.31,6.34-2.31s4,0.61,5.06,1.83c1.05,1.22,1.58,2.42,1.58,3.59
			C424.56,215.29,424.4,216.57,424.08,217.95z"/>
		<path class="st0" d="M505.7,214.3c1.62-2.27,2.44-4.75,2.44-7.43c0-9.66-8.33-14.5-24.98-14.5c-10.8,0-19.07,1.99-24.79,5.97
			c-5.73,3.98-8.59,9.67-8.59,17.06c0,3.82,1.14,6.9,3.41,9.26c2.27,2.36,5.06,3.9,8.35,4.63c3.29,0.73,6.58,1.26,9.87,1.58
			c3.29,0.33,6.07,0.71,8.34,1.16c2.27,0.45,3.41,1.24,3.41,2.38c0,1.71-0.65,2.86-1.95,3.47c-1.3,0.61-3.41,0.91-6.33,0.91
			c-2.92,0-5.14-0.43-6.64-1.28c-1.5-0.85-2.17-1.85-2.01-2.99l-20.35,0.24c-0.24,1.38-0.37,2.72-0.37,4.02
			c0,4.55,1.62,8.12,4.87,10.72c4.14,3.33,11.37,5,21.69,5c10.31,0,18.17-1.74,23.57-5.24c5.4-3.49,8.1-8.61,8.1-15.35
			c0-3.82-1.14-6.86-3.41-9.14c-2.28-2.27-5.04-3.8-8.28-4.57c-3.25-0.77-6.5-1.36-9.75-1.77c-3.25-0.41-6.01-0.93-8.28-1.58
			c-2.27-0.65-3.41-1.71-3.41-3.17c0-3.73,3.05-5.6,9.14-5.6c2.03,0,3.7,0.35,5,1.04c1.3,0.69,1.95,1.6,1.95,2.74
			c0,1.14-0.33,1.95-0.97,2.44H505.7z"/>
		<path class="st0" d="M567.72,214.3c1.62-2.27,2.44-4.75,2.44-7.43c0-9.66-8.33-14.5-24.98-14.5c-10.8,0-19.07,1.99-24.79,5.97
			c-5.73,3.98-8.59,9.67-8.59,17.06c0,3.82,1.14,6.9,3.41,9.26c2.27,2.36,5.06,3.9,8.35,4.63c3.29,0.73,6.58,1.26,9.87,1.58
			c3.29,0.33,6.07,0.71,8.34,1.16c2.27,0.45,3.41,1.24,3.41,2.38c0,1.71-0.65,2.86-1.95,3.47c-1.3,0.61-3.41,0.91-6.33,0.91
			c-2.92,0-5.14-0.43-6.64-1.28c-1.5-0.85-2.17-1.85-2.01-2.99l-20.35,0.24c-0.24,1.38-0.37,2.72-0.37,4.02
			c0,4.55,1.62,8.12,4.87,10.72c4.14,3.33,11.37,5,21.69,5c10.31,0,18.17-1.74,23.57-5.24c5.4-3.49,8.1-8.61,8.1-15.35
			c0-3.82-1.14-6.86-3.41-9.14c-2.28-2.27-5.04-3.8-8.28-4.57c-3.25-0.77-6.5-1.36-9.75-1.77c-3.25-0.41-6.01-0.93-8.28-1.58
			c-2.27-0.65-3.41-1.71-3.41-3.17c0-3.73,3.05-5.6,9.14-5.6c2.03,0,3.7,0.35,5,1.04c1.3,0.69,1.95,1.6,1.95,2.74
			c0,1.14-0.33,1.95-0.97,2.44H567.72z"/>
		<path class="st0" d="M591.96,225.39h37.16l1.46-8.65c0.32-2.11,0.49-4.06,0.49-5.85c0-12.35-8.16-18.52-24.49-18.52
			c-9.58,0-17.28,2.09-23.09,6.27c-5.81,4.18-9.4,10.17-10.78,17.97l-2.56,15.11c-0.33,1.87-0.49,3.61-0.49,5.24
			c0,11.7,8.45,17.54,25.34,17.54c18.52,0,29.12-7.59,31.8-22.78l-20.22-0.24c-0.24,1.63-1.06,3.05-2.44,4.26
			c-1.38,1.22-3.05,1.83-5,1.83c-5.28,0-7.92-2.23-7.92-6.7c0-0.81,0.08-1.71,0.24-2.68L591.96,225.39z M597.14,211.01
			c1.91-1.54,4.02-2.31,6.34-2.31s4,0.61,5.06,1.83c1.05,1.22,1.58,2.42,1.58,3.59c0,1.18-0.16,2.46-0.49,3.84h-16.45
			C593.91,214.87,595.23,212.55,597.14,211.01z"/>
		<path class="st0" d="M677,194.2l-6.82,38.86c-2.36,2.52-5.32,3.78-8.89,3.78c-4.39,0-6.58-1.95-6.58-5.85
			c0-1.46,0.12-2.92,0.37-4.39l5.73-32.41h-20.71l-6.82,38.38c-0.41,2.52-0.61,5-0.61,7.43c0,2.44,0.37,4.63,1.1,6.58
			c1.22,3.49,4.14,5.81,8.77,6.94c-8.53,5.36-12.79,11.49-12.79,18.4c0,4.87,1.81,8.81,5.42,11.82c3.61,3,9.52,4.51,17.73,4.51
			c8.2,0,15.49-3.01,21.87-9.02c6.38-6.01,10.46-14.17,12.24-24.49l10.72-60.55H677z M666.03,256.45
			c-1.63,9.58-5.08,14.38-10.36,14.38c-1.71,0-3.03-0.51-3.96-1.52c-0.93-1.02-1.4-2.34-1.4-3.96c0-5.36,5.64-10.68,16.93-15.96
			L666.03,256.45z"/>
	</g>
</g>
</svg>
